<?xml version="1.0" encoding="utf-8"?>
<!-- Generator: Adobe Illustrator 14.0.0, SVG Export Plug-In  -->
<!DOCTYPE svg PUBLIC "-//W3C//DTD SVG 1.1//EN" "http://www.w3.org/Graphics/SVG/1.1/DTD/svg11.dtd" [
	<!ENTITY ns_flows "http://ns.adobe.com/Flows/1.0/">
]>
<svg version="1.1"
	 xmlns="http://www.w3.org/2000/svg" xmlns:xlink="http://www.w3.org/1999/xlink" xmlns:a="http://ns.adobe.com/AdobeSVGViewerExtensions/3.0/"
	 x="0px" y="0px" width="433px" height="64px" viewBox="0 -18.9 433 64" enable-background="new 0 -18.9 433 64"
	 xml:space="preserve">
<defs>
</defs>
<rect fill="#010101" width="186" height="45"/>
<rect x="181.8" fill="#602E1A" width="250.7" height="45"/>
<path fill="#FFFFFF" d="M260.5,6.9l14.3,30.6h-3.3l-4.8-10.1h-13.2l-4.8,10.1h-3.4l14.5-30.6H260.5z M260.1,13.4l-5.2,11.1h10.5
	L260.1,13.4z"/>
<path fill="#FFFFFF" d="M310.1,12.5l-2.4,1.9c-1.3-1.7-2.9-3-4.8-3.9c-1.9-0.9-3.9-1.3-6.1-1.3c-2.4,0-4.7,0.6-6.8,1.8
	c-2.1,1.2-3.7,2.7-4.8,4.7c-1.1,2-1.7,4.2-1.7,6.7c0,3.7,1.3,6.8,3.8,9.3s5.8,3.7,9.7,3.7c4.3,0,7.9-1.7,10.8-5l2.4,1.8
	c-1.5,1.9-3.4,3.4-5.7,4.5c-2.3,1.1-4.8,1.6-7.6,1.6c-5.4,0-9.6-1.8-12.7-5.3c-2.6-3-3.9-6.6-3.9-10.9c0-4.5,1.6-8.2,4.7-11.3
	c3.1-3.1,7.1-4.6,11.8-4.6c2.9,0,5.4,0.6,7.7,1.7C306.7,8.9,308.6,10.5,310.1,12.5z"/>
<path fill="#FFFFFF" d="M315.3,9.9v-3h16.8v3h-6.8v27.6h-3.1V9.9H315.3z"/>
<path fill="#FFFFFF" d="M338.2,6.9h3.1v30.6h-3.1V6.9z"/>
<path fill="#FFFFFF" d="M364.9,6.1c4.6,0,8.5,1.5,11.6,4.6c3.1,3.1,4.7,6.9,4.7,11.4c0,4.5-1.6,8.3-4.7,11.4s-6.9,4.7-11.4,4.7
	c-4.5,0-8.4-1.6-11.5-4.7c-3.1-3.1-4.7-6.9-4.7-11.3c0-2.9,0.7-5.7,2.1-8.2s3.4-4.5,5.8-5.9C359.4,6.8,362.1,6.1,364.9,6.1z
	 M365.1,9.1c-2.3,0-4.4,0.6-6.4,1.8c-2,1.2-3.6,2.8-4.7,4.8c-1.1,2-1.7,4.2-1.7,6.7c0,3.6,1.3,6.7,3.8,9.2c2.5,2.5,5.6,3.8,9.1,3.8
	c2.4,0,4.6-0.6,6.6-1.7c2-1.2,3.6-2.7,4.7-4.7c1.1-2,1.7-4.2,1.7-6.7c0-2.4-0.6-4.6-1.7-6.6c-1.1-2-2.7-3.5-4.8-4.7
	C369.6,9.7,367.4,9.1,365.1,9.1z"/>
<path fill="#FFFFFF" d="M389.5,37.5V6.9h0.7l20.4,23.4V6.9h3v30.6h-0.7l-20.2-23.2v23.2H389.5z"/>
<path fill="#FFFFFF" d="M199.2,13.7h2.3V37h-2.3V13.7z"/>
<path fill="#FFFFFF" d="M208.5,37V13.7h0.5l15.5,17.8V13.7h2.3V37h-0.5l-15.4-17.6V37H208.5z"/>
<path fill="#FFFFFF" d="M22.5,6.1v14c0.8-1.1,1.7-2,2.6-2.5c1-0.6,2-0.8,3.2-0.8c2.2,0,4.1,0.9,5.6,2.6c1.5,1.7,2.3,4,2.3,6.8
	c0,3.1-0.8,5.5-2.5,7.4c-1.6,1.9-3.7,2.8-6.1,2.8c-1.2,0-2.2-0.2-3.1-0.7c-0.9-0.5-1.9-1.2-2.9-2.3c-0.8,1.2-1.5,2.2-2.2,3l-0.8-0.3
	c0.4-1.5,0.6-3.1,0.6-4.8V10.1c0-0.7-0.2-1.2-0.7-1.5C18,8.1,17.3,8,16.5,8h-0.8V6.4L22.5,6.1z M27.6,18.6c-1.5,0-2.7,0.7-3.7,2
	c-1,1.3-1.4,3.5-1.4,6.5c0,2.9,0.5,5,1.4,6.2c0.9,1.2,2.2,1.9,3.7,1.9c1.4,0,2.5-0.6,3.3-1.8c1-1.6,1.6-3.8,1.6-6.6
	c0-2.8-0.5-4.9-1.4-6.2C30.1,19.2,28.9,18.6,27.6,18.6z"/>
<path fill="#FFFFFF" d="M41.2,17.3l7.5-0.2v16.2c0,0.4,0.1,0.8,0.3,0.9c0.3,0.3,0.7,0.4,1.2,0.4h2.1v1.5H41.6v-1.5h2
	c0.6,0,1-0.1,1.3-0.4c0.3-0.3,0.4-0.7,0.4-1.3V21.1c0-0.7-0.2-1.3-0.6-1.7c-0.4-0.4-1.1-0.6-1.9-0.6h-1.5V17.3z M46.5,6.1
	c0.6,0,1.1,0.2,1.6,0.7c0.5,0.5,0.7,1,0.7,1.6c0,0.6-0.2,1.1-0.7,1.6c-0.4,0.4-1,0.7-1.6,0.7c-0.6,0-1.1-0.2-1.6-0.7
	c-0.4-0.4-0.7-1-0.7-1.6c0-0.6,0.2-1.1,0.7-1.6C45.4,6.3,45.9,6.1,46.5,6.1z"/>
<path fill="#FFFFFF" d="M90.7,6.1v27.3c0,0.4,0.1,0.7,0.3,0.9c0.3,0.3,0.7,0.4,1.2,0.4h2v1.5H83.6v-1.5h1.9c0.6,0,1.1-0.1,1.4-0.4
	c0.3-0.3,0.5-0.7,0.5-1.2V10.1c0-0.7-0.2-1.2-0.5-1.5C86.3,8.2,85.7,8,84.9,8h-1.7V6.4L90.7,6.1z"/>
<path fill="#FFFFFF" d="M107.5,16.8c2.5,0,4.7,0.9,6.4,2.7c1.7,1.8,2.6,4.2,2.6,7.2c0,2.1-0.4,3.8-1.2,5.3c-0.8,1.5-1.9,2.6-3.3,3.4
	c-1.4,0.8-3,1.3-4.6,1.3c-2.4,0-4.5-0.9-6.2-2.8c-1.7-1.8-2.5-4.2-2.5-7.2c0-3,0.8-5.4,2.6-7.2C102.9,17.7,105,16.8,107.5,16.8z
	 M107.5,18.2c-1.5,0-2.7,0.7-3.7,2c-1,1.4-1.4,3.5-1.4,6.4c0,3,0.5,5.2,1.4,6.5c1,1.4,2.2,2.1,3.7,2.1c1.6,0,2.8-0.7,3.8-2.1
	c1-1.4,1.5-3.6,1.5-6.8c0-2.9-0.5-5-1.4-6.3C110.3,18.8,109.1,18.2,107.5,18.2z"/>
<path fill="#FFFFFF" d="M135.6,18.4c1.3-1.4,2.6-2,3.7-2c0.7,0,1.2,0.2,1.7,0.6c0.4,0.4,0.7,1,0.7,1.6c0,0.5-0.2,0.9-0.5,1.2
	c-0.3,0.3-0.7,0.5-1.1,0.5c-0.8,0-1.3-0.5-1.5-1.4c-0.1-0.4-0.3-0.6-0.5-0.6c-0.5,0-1,0.3-1.5,0.9c0.6,0.8,1,1.5,1.2,2.1
	s0.3,1.2,0.3,1.9c0,1.2-0.3,2.2-0.8,3.1c-0.6,0.9-1.5,1.7-2.8,2.4c-1.3,0.7-2.6,1-3.7,1h-2.2c-1.6,0-2.6,0.2-3.1,0.5
	c-0.5,0.3-0.8,0.8-0.8,1.5c0,0.5,0.2,0.9,0.6,1.2s1.2,0.4,2.3,0.4l5-0.1c2.5,0,4.3,0.4,5.4,1.3c1.1,0.8,1.7,2,1.7,3.4
	c0,1.6-0.6,3-1.9,4.1c-1.8,1.6-4.4,2.3-7.9,2.3c-2.9,0-5-0.5-6.4-1.6c-1.1-0.8-1.6-1.8-1.6-2.8c0-0.8,0.4-1.5,1.1-2.2
	c0.7-0.7,1.9-1.1,3.5-1.5c-1.3-0.3-2.3-0.8-3-1.4c-0.7-0.6-1-1.4-1-2.3c0-0.9,0.3-1.6,0.8-2.2c0.5-0.6,1.5-1.2,2.8-1.6
	c-1.1-0.6-2-1.4-2.6-2.3c-0.6-0.9-0.9-1.9-0.9-3.1c0-1.8,0.7-3.3,2.1-4.6c1.4-1.2,3.3-1.8,5.6-1.8c0.9,0,1.8,0.1,2.7,0.4
	C134,17.4,134.8,17.8,135.6,18.4z M131.5,36.2c-2.5,0-4.2,0.3-5.3,1c-1.1,0.7-1.6,1.5-1.6,2.5c0,0.9,0.4,1.6,1.2,2.1
	c1,0.7,2.5,1,4.5,1c2.3,0,4-0.4,5.2-1.1c1.2-0.8,1.7-1.6,1.7-2.6c0-0.5-0.2-1.1-0.5-1.5c-0.4-0.5-0.9-0.8-1.7-1.1
	C134.2,36.3,133.1,36.2,131.5,36.2z M130.4,18.1c-1.2,0-2.2,0.4-3,1.3c-0.8,0.9-1.2,2.1-1.2,3.7c0,1.7,0.4,3,1.2,3.9
	c0.8,0.9,1.8,1.4,3,1.4s2.2-0.5,3-1.4c0.8-0.9,1.2-2.2,1.2-3.9c0-1.6-0.4-2.8-1.2-3.7C132.5,18.5,131.5,18.1,130.4,18.1z"/>
<path fill="#FFFFFF" d="M144.9,17.3h9v1.4h-0.8c-0.8,0-1.3,0.1-1.6,0.3c-0.3,0.2-0.4,0.5-0.4,0.9c0,0.2,0,0.3,0.1,0.5l5.2,11.3
	l3.9-9.4c0.3-0.7,0.4-1.3,0.4-2c0-0.5-0.2-0.9-0.6-1.2c-0.4-0.3-1.2-0.5-2.3-0.5v-1.4h7.8v1.4c-1.5,0.1-2.5,0.8-3.1,2l-7,16.2
	c-1.2,2.8-2.4,4.6-3.6,5.7c-1.2,1-2.5,1.6-3.9,1.6c-1,0-1.8-0.3-2.4-0.8s-0.9-1.2-0.9-2c0-0.6,0.2-1.1,0.6-1.5
	c0.4-0.4,0.8-0.6,1.4-0.6c0.5,0,0.9,0.2,1.3,0.5c0.3,0.3,0.5,0.7,0.5,1.2c0,0.1,0,0.3-0.1,0.6c-0.1,0.2-0.1,0.3-0.1,0.4
	c0,0.3,0.2,0.5,0.6,0.5c0.4,0,0.9-0.2,1.5-0.5c0.6-0.3,1.1-0.8,1.6-1.5c0.5-0.7,1.3-2.3,2.5-4.7l-7.1-15.3c-0.3-0.5-0.6-0.9-1-1.2
	c-0.4-0.3-0.9-0.4-1.7-0.5V17.3z"/>
<circle fill="#602E1A" stroke="#CFB7A1" cx="68.3" cy="24.6" r="15.3"/>
<path fill="none" stroke="#CFB7A1" d="M64.3,10c0,0-5.1,7-3.8,16.7c1.4,11.2,8.3,13.2,8.3,13.2"/>
<path fill="none" stroke="#CFB7A1" d="M59.9,11.7c0,0,6.7,1.4,13.5,9.9c8.5,10.6,4.1,15.1,4.1,15.1"/>
<path fill="none" stroke="#CFB7A1" d="M58.2,36.1c0,0-2.7-3.6-2.7-9.9c0-8.3,7.4-13.8,7.4-13.8s8-0.1,14.4,4.8
	c7.6,5.7,4.9,13.7,4.9,13.7"/>
<path fill="none" stroke="#CFB7A1" d="M53,23.4c0,0,0-5.8,9.9-11.6c5.1-3,6.4-2.4,6.4-2.4"/>
<path fill="none" stroke="#CFB7A1" d="M62.9,12.9c0,0,0.8,4,4.5,12.9c3.5,8.4,6.5,12.9,6.5,12.9"/>
<path fill="none" stroke="#CFB7A1" d="M56.7,14.6c0,0,9.8-5.8,17.2-2.9c6.6,2.6,8,5.9,8,5.9"/>
<path fill="none" stroke="#CFB7A1" d="M56.4,15c0,0-1.3,6.5,8.5,2.7c8.9-3.5,5-8.4,5-8.4"/>
<path fill="none" stroke="#CFB7A1" d="M53,23.8c0,0,1.7,6.7,15.8,0.4c11.7-5.2,9-11.7,9-11.7"/>
<path fill="none" stroke="#CFB7A1" d="M54.9,32c0,0,3.7,4.8,15.8,0c12.9-5.2,12-12.6,12-12.6"/>
<path fill="none" stroke="#CFB7A1" d="M62.7,38.8c0,0,4.4,0.7,10.3-1.5c6.7-2.5,9.4-6.9,9.4-6.9"/>
</svg>
