<?xml version="1.0" encoding="utf-8"?>
<!-- Generator: Adobe Illustrator 14.0.0, SVG Export Plug-In  -->
<!DOCTYPE svg PUBLIC "-//W3C//DTD SVG 1.1//EN" "http://www.w3.org/Graphics/SVG/1.1/DTD/svg11.dtd" [
	<!ENTITY ns_flows "http://ns.adobe.com/Flows/1.0/">
]>
<svg version="1.1"
	 xmlns="http://www.w3.org/2000/svg" xmlns:xlink="http://www.w3.org/1999/xlink" xmlns:a="http://ns.adobe.com/AdobeSVGViewerExtensions/3.0/"
	 x="0px" y="0px" width="433px" height="64px" viewBox="0 -7.5 433 64" enable-background="new 0 -7.5 433 64" xml:space="preserve"
	>
<defs>
</defs>
<rect y="10.7" fill="#010101" width="182" height="45"/>
<rect x="173.3" y="10.7" fill="#005273" width="259.2" height="45"/>
<path fill="#FFFFFF" d="M209.5,26.6l-1.8,1.4c-1-1.3-2.2-2.3-3.6-3c-1.4-0.7-3-1-4.7-1c-1.9,0-3.6,0.4-5.2,1.3
	c-1.6,0.9-2.8,2.1-3.7,3.6s-1.3,3.2-1.3,5.1c0,2.8,1,5.2,2.9,7.1c1.9,1.9,4.4,2.8,7.4,2.8c3.3,0,6-1.3,8.2-3.8l1.8,1.4
	c-1.2,1.5-2.6,2.6-4.3,3.4c-1.7,0.8-3.7,1.2-5.8,1.2c-4.1,0-7.3-1.4-9.6-4.1c-2-2.3-3-5.1-3-8.3c0-3.4,1.2-6.3,3.6-8.6
	c2.4-2.3,5.4-3.5,9-3.5c2.2,0,4.1,0.4,5.9,1.3C206.9,23.9,208.4,25.1,209.5,26.6z"/>
<path fill="#FFFFFF" d="M226.8,21.7c3.5,0,6.5,1.2,8.8,3.5c2.4,2.4,3.6,5.2,3.6,8.7c0,3.4-1.2,6.3-3.6,8.7c-2.4,2.4-5.3,3.6-8.7,3.6
	c-3.5,0-6.4-1.2-8.7-3.5c-2.4-2.4-3.6-5.2-3.6-8.6c0-2.2,0.5-4.3,1.6-6.2c1.1-1.9,2.6-3.4,4.4-4.5C222.7,22.3,224.7,21.7,226.8,21.7
	z M227,24c-1.7,0-3.4,0.4-4.9,1.3c-1.5,0.9-2.7,2.1-3.6,3.6c-0.9,1.5-1.3,3.2-1.3,5.1c0,2.8,1,5.1,2.9,7c1.9,1.9,4.2,2.9,6.9,2.9
	c1.8,0,3.5-0.4,5-1.3s2.7-2.1,3.6-3.6c0.9-1.5,1.3-3.2,1.3-5.1c0-1.8-0.4-3.5-1.3-5s-2.1-2.7-3.6-3.6C230.4,24.4,228.7,24,227,24z"
	/>
<path fill="#FFFFFF" d="M245.6,45.6V22.3h0.5l15.5,17.8V22.3h2.3v23.3h-0.5L248,28v17.6H245.6z"/>
<path fill="#FFFFFF" d="M271.2,45.6V22.3h0.5l15.5,17.8V22.3h2.3v23.3h-0.5L273.6,28v17.6H271.2z"/>
<path fill="#FFFFFF" d="M296.7,22.3h13.3v2.3h-11v7.3H310v2.3h-10.9v9.1H310v2.3h-13.2V22.3z"/>
<path fill="#FFFFFF" d="M337.4,26.6l-1.8,1.4c-1-1.3-2.2-2.3-3.6-3s-3-1-4.7-1c-1.9,0-3.6,0.4-5.2,1.3c-1.6,0.9-2.8,2.1-3.7,3.6
	c-0.9,1.5-1.3,3.2-1.3,5.1c0,2.8,1,5.2,2.9,7.1c1.9,1.9,4.4,2.8,7.4,2.8c3.3,0,6-1.3,8.2-3.8l1.8,1.4c-1.2,1.5-2.6,2.6-4.3,3.4
	c-1.7,0.8-3.7,1.2-5.8,1.2c-4.1,0-7.3-1.4-9.6-4.1c-2-2.3-3-5.1-3-8.3c0-3.4,1.2-6.3,3.6-8.6s5.4-3.5,9-3.5c2.2,0,4.1,0.4,5.9,1.3
	C334.8,23.9,336.3,25.1,337.4,26.6z"/>
<path fill="#FFFFFF" d="M341.4,24.6v-2.3h12.8v2.3h-5.2v21h-2.4v-21H341.4z"/>
<path fill="#FFFFFF" d="M358.8,22.3h2.3v23.3h-2.3V22.3z"/>
<path fill="#FFFFFF" d="M379.1,21.7c3.5,0,6.5,1.2,8.8,3.5c2.4,2.4,3.6,5.2,3.6,8.7c0,3.4-1.2,6.3-3.6,8.7c-2.4,2.4-5.3,3.6-8.7,3.6
	c-3.5,0-6.4-1.2-8.7-3.5c-2.4-2.4-3.6-5.2-3.6-8.6c0-2.2,0.5-4.3,1.6-6.2s2.6-3.4,4.4-4.5C374.9,22.3,376.9,21.7,379.1,21.7z
	 M379.2,24c-1.7,0-3.4,0.4-4.9,1.3c-1.5,0.9-2.7,2.1-3.6,3.6c-0.9,1.5-1.3,3.2-1.3,5.1c0,2.8,1,5.1,2.9,7c1.9,1.9,4.2,2.9,6.9,2.9
	c1.8,0,3.5-0.4,5-1.3s2.7-2.1,3.6-3.6c0.9-1.5,1.3-3.2,1.3-5.1c0-1.8-0.4-3.5-1.3-5s-2.1-2.7-3.6-3.6C382.6,24.4,381,24,379.2,24z"
	/>
<path fill="#FFFFFF" d="M397.8,45.6V22.3h0.5l15.5,17.8V22.3h2.3v23.3h-0.5L400.2,28v17.6H397.8z"/>
<path fill="#FFFFFF" d="M33.7,38.9l1.7,0.5c-1.3,4.9-4.3,7.4-8.9,7.4c-3.4,0-6.1-1.1-8.2-3.3c-2.1-2.2-3.2-5.2-3.2-8.9
	c0-4.3,1.2-7.6,3.5-9.9c2.3-2.4,5.1-3.5,8.3-3.5c2.4,0,4.3,0.7,5.9,2c1.6,1.3,2.3,2.8,2.3,4.4c0,1-0.3,1.8-0.9,2.4s-1.3,0.9-2.1,0.9
	c-0.8,0-1.4-0.3-2-0.8c-0.5-0.5-0.8-1.2-0.8-1.9c0-0.8,0.3-1.5,0.9-2.2c0.3-0.3,0.4-0.6,0.4-0.8c0-0.5-0.3-1-1-1.5
	C29,23.2,28,23,26.9,23c-2.1,0-3.7,0.8-4.8,2.3c-1.5,2.2-2.3,5.1-2.3,8.8c0,3.5,0.7,6.1,2.1,7.9c1.4,1.8,3.1,2.7,5.3,2.7
	C30.1,44.6,32.3,42.7,33.7,38.9z"/>
<path fill="#FFFFFF" d="M64.3,43.4l0.9,1.4c-1.3,1.3-2.7,1.9-4.2,1.9c-1.2,0-2.2-0.3-3-1s-1.5-1.8-2.1-3.4c-1.6,1.7-3.1,2.9-4.3,3.5
	c-1.2,0.6-2.7,0.9-4.5,0.9c-2.5,0-4.4-0.5-5.7-1.6c-1.3-1.1-1.9-2.4-1.9-4.1c0-2.5,1.5-4.6,4.4-6.3s6.9-2.8,11.8-3.3v-3.7
	c0-1.3-0.5-2.4-1.6-3.4s-2.4-1.4-4-1.4c-1.5,0-2.8,0.3-3.9,0.9c-0.8,0.5-1.2,0.9-1.2,1.4c0,0.3,0.2,0.7,0.6,1.2
	c0.5,0.7,0.7,1.3,0.7,1.8c0,0.8-0.2,1.4-0.7,1.9c-0.5,0.5-1.2,0.7-2,0.7c-0.9,0-1.6-0.3-2.2-0.9c-0.6-0.6-0.9-1.3-0.9-2.2
	c0-1.7,1-3.3,2.9-4.7c1.9-1.4,4.4-2.1,7.6-2.1c2.9,0,5.1,0.6,6.6,1.9c1.5,1.3,2.3,2.8,2.3,4.6v13.2c0,1.2,0.2,2,0.6,2.6
	c0.4,0.6,0.9,0.9,1.5,0.9C62.8,44.2,63.5,44,64.3,43.4z M55.8,33.2c-4.4,0.6-7.5,1.6-9.3,2.9c-1.4,1-2,2.5-2,4.4
	c0,1.3,0.4,2.4,1.1,3.1c0.7,0.7,1.6,1.1,2.8,1.1c2,0,3.8-0.8,5.3-2.3s2.2-3.5,2.2-5.8V33.2z"/>
<path fill="#8190A7" d="M67.7,49.9c0,0-0.3-2.5,1.3-3.4c1.6-0.8,1.8-1,3-1c1.2,0,3.9,0,3.9,0s0.4-1,0.8-1c0.5,0-15.1-15-15.1-15
	s-0.2,0.7-1.3,0.7c-1.1,0-3.6-1-3.6-3.9c0-2.9,2.3-3.6,3.7-3.6c1.5,0,1.8,0.6,1.8,0.6l14.5-12.7c0,0-0.6-1.5-1.5-2.7
	C74.4,6.9,73.9,6,75,5.3c1.1-0.7,1.7-2.1,1.7-2.1l-1.3-1.9L75.2,0h1.5l1.4,2.4L80,1.3c0,0,1.1-0.4,1.9,0.2c0.8,0.6,2.5,3.1,2.5,3.1
	L82.1,7l0.5,1.1c0,0,2.2-1.6,3.7-1.6c1.6,0,5.1,0.7,8.1,3c3,2.3,4.1,3.9,4.1,3.9L80.4,26.5c0,0-2.1-1.2-2.8-4.4
	c-0.8-3.1-1.1-7.6-0.7-8.3c0.5-0.7-13.4,10.8-13.4,10.8s0.3,0.5,0,1.9c-0.3,1.3-0.5,1.9-0.5,1.9l16.1,15.1c0,0,1.5,0.7,1.9,1.3
	c0.5,0.6,1.3,1,1.3,1l4.6-0.2c0,0,1.6,0.4,2.4,1.2c0.8,0.8,1,3.1,1,3.1H67.7z"/>
<path fill="#FFFFFF" d="M108.3,34.1H91c0.1,3.7,0.8,6.3,2.1,7.8c1.5,1.7,3.4,2.6,5.7,2.6c3.4,0,6.1-1.9,8.1-5.8l1.7,0.7
	c-2.5,4.9-6.2,7.3-10.9,7.3c-3.2,0-6-1.2-8.2-3.5s-3.3-5.3-3.3-9c0-3.9,1.1-7.1,3.3-9.5c2.2-2.4,4.9-3.6,8.1-3.6
	c2.3,0,4.4,0.6,6.1,1.8c1.7,1.2,3,2.9,3.9,5.2C107.9,29.7,108.3,31.7,108.3,34.1z M91,32.3h10.5c0.6,0,1.1-0.2,1.4-0.6
	c0.3-0.4,0.5-1.1,0.5-2.2c0-1.9-0.6-3.5-1.8-4.8c-1.2-1.3-2.6-2-4.2-2c-1.8,0-3.3,0.8-4.6,2.4C91.7,26.7,91,29.1,91,32.3z"/>
<path fill="#FFFFFF" d="M134.8,34.1h-17.3c0.1,3.7,0.8,6.3,2.1,7.8c1.5,1.7,3.4,2.6,5.7,2.6c3.4,0,6.1-1.9,8.1-5.8l1.7,0.7
	c-2.5,4.9-6.2,7.3-10.9,7.3c-3.2,0-6-1.2-8.2-3.5s-3.3-5.3-3.3-9c0-3.9,1.1-7.1,3.3-9.5c2.2-2.4,4.9-3.6,8.1-3.6
	c2.3,0,4.4,0.6,6.1,1.8c1.7,1.2,3,2.9,3.9,5.2C134.4,29.7,134.7,31.7,134.8,34.1z M117.4,32.3h10.5c0.6,0,1.1-0.2,1.4-0.6
	c0.3-0.4,0.5-1.1,0.5-2.2c0-1.9-0.6-3.5-1.8-4.8c-1.2-1.3-2.6-2-4.2-2c-1.8,0-3.3,0.8-4.6,2.4C118.1,26.7,117.5,29.1,117.4,32.3z"/>
<path fill="#FFFFFF" d="M138.1,21.9l8.7-0.4v9.8c0.9-3.2,2-5.7,3.4-7.3c1.3-1.7,2.9-2.5,4.9-2.5c1.3,0,2.4,0.4,3.1,1.2
	c0.8,0.8,1.2,1.9,1.2,3.2c0,1.1-0.3,1.9-0.8,2.5c-0.5,0.6-1.2,0.9-2,0.9c-0.8,0-1.4-0.3-1.9-0.8c-0.5-0.5-0.7-1.2-0.7-2.1
	c0-0.6,0.1-1.1,0.4-1.6c0.3-0.4,0.4-0.7,0.4-0.8c0-0.3-0.2-0.4-0.5-0.4c-0.7,0-1.5,0.4-2.4,1.2c-1.2,1.2-2.2,2.7-2.9,4.8
	c-1,3.1-1.5,5.6-1.5,7.5v5.2c0,0.6,0.2,1,0.6,1.3c0.4,0.3,1.1,0.5,2.1,0.5h3.1v1.9h-15v-1.9h2.4c0.8,0,1.4-0.2,1.8-0.5
	c0.4-0.3,0.6-0.7,0.6-1.1V27.1c0-1.2-0.2-2-0.7-2.6c-0.5-0.5-1.2-0.8-2.1-0.8h-2.1V21.9z"/>
</svg>
