<?xml version="1.0" encoding="utf-8"?>
<!-- Generator: Adobe Illustrator 14.0.0, SVG Export Plug-In  -->
<!DOCTYPE svg PUBLIC "-//W3C//DTD SVG 1.1//EN" "http://www.w3.org/Graphics/SVG/1.1/DTD/svg11.dtd" [
	<!ENTITY ns_flows "http://ns.adobe.com/Flows/1.0/">
]>
<svg version="1.1"
	 xmlns="http://www.w3.org/2000/svg" xmlns:xlink="http://www.w3.org/1999/xlink" xmlns:a="http://ns.adobe.com/AdobeSVGViewerExtensions/3.0/"
	 x="0px" y="0px" width="433px" height="64px" viewBox="0 -3.5 433 64" enable-background="new 0 -3.5 433 64" xml:space="preserve"
	>
<defs>
</defs>
<rect y="14.4" fill="#010101" width="193.6" height="45"/>
<rect x="193.6" y="14.4" fill="#517542" width="239" height="45"/>
<path fill="#75B152" d="M31,51.4c0,0,6-19.6-2.6-51.4C43.9,28.2,34.1,45.3,31,51.4z"/>
<path fill="#517542" d="M38.8,32.5c0,0,0.7-24.4,11.7-28.1C44.1,14.8,42.4,20.4,38.8,32.5z"/>
<path fill="#FFFFFF" d="M26.5,41.1H11.6c0.1,3.2,0.7,5.4,1.8,6.7c1.3,1.5,2.9,2.2,4.9,2.2c2.9,0,5.2-1.6,7-4.9l1.4,0.6
	c-2.2,4.2-5.3,6.3-9.4,6.3c-2.8,0-5.1-1-7-3c-1.9-2-2.8-4.6-2.8-7.7c0-3.4,0.9-6.1,2.8-8.2c1.9-2.1,4.2-3.1,6.9-3.1
	c2,0,3.7,0.5,5.2,1.6c1.5,1,2.6,2.5,3.3,4.5C26.2,37.3,26.5,39.1,26.5,41.1z M11.6,39.6h9c0.5,0,0.9-0.2,1.2-0.5
	c0.3-0.4,0.4-1,0.4-1.9c0-1.6-0.5-3-1.5-4.1c-1-1.1-2.2-1.7-3.6-1.7c-1.5,0-2.8,0.7-3.9,2.1C12.2,34.7,11.7,36.8,11.6,39.6z"/>
<path fill="#FFFFFF" d="M52.3,30c2.8,0,5.1,1,7,3s2.8,4.7,2.8,8c0,2.3-0.4,4.2-1.3,5.8s-2.1,2.9-3.6,3.8C55.7,51.5,54,52,52.2,52
	c-2.7,0-5-1-6.8-3.1c-1.9-2-2.8-4.7-2.8-7.9c0-3.3,0.9-5.9,2.8-8C47.3,31,49.6,30,52.3,30z M52.3,31.6c-1.7,0-3,0.8-4.1,2.2
	c-1.1,1.5-1.6,3.9-1.6,7.1c0,3.3,0.5,5.7,1.6,7.2c1.1,1.5,2.4,2.3,4.1,2.3c1.7,0,3.1-0.8,4.2-2.3c1.1-1.5,1.6-4,1.6-7.5
	c0-3.2-0.5-5.5-1.6-7C55.5,32.3,54.1,31.6,52.3,31.6z"/>
<path fill="#FFFFFF" d="M73.1,18.2v30.1c0,0.4,0.1,0.7,0.4,1c0.4,0.3,0.8,0.4,1.4,0.4H77v1.7H65.2v-1.7h2.1c0.7,0,1.2-0.2,1.5-0.5
	c0.3-0.3,0.5-0.8,0.5-1.4V22.6c0-0.7-0.2-1.3-0.6-1.6c-0.5-0.5-1.2-0.7-2-0.7h-1.9v-1.7L73.1,18.2z"/>
<path fill="#FFFFFF" d="M86.6,30.2V44c0,1.7,0.4,3,1.3,3.9c0.8,0.9,1.9,1.4,3.3,1.4c1.7,0,3.1-0.7,4.2-2c1.2-1.3,1.7-3,1.7-5v-7.8
	c0-0.7-0.3-1.3-0.8-1.7c-0.5-0.4-1.5-0.6-2.9-0.7v-1.6l7.3-0.4v17c0,0.8,0.2,1.4,0.7,1.8c0.4,0.4,1.1,0.6,1.9,0.6h1.3v1.5l-7,0.2
	l-0.4-4.1c-1.2,1.5-2.5,2.6-3.7,3.3s-2.5,1.1-3.8,1.1c-1.9,0-3.4-0.6-4.7-1.9c-1.3-1.2-1.9-3.3-1.9-6.3v-9c0-0.8-0.3-1.4-1-1.8
	c-0.4-0.3-1.4-0.5-2.7-0.5v-1.6L86.6,30.2z"/>
<path fill="#FFFFFF" d="M112.7,22.1h1.5v8.5h6.7v2h-6.7V46c0,1.2,0.3,2,0.8,2.6c0.5,0.6,1.2,0.9,2.1,0.9c1,0,1.9-0.5,2.6-1.4
	c0.7-0.9,1.1-2.5,1.2-4.6h1.5c-0.1,2.8-0.7,4.8-1.9,6.1c-1.2,1.3-2.7,2-4.5,2c-1.7,0-3.1-0.5-4-1.4c-1-0.9-1.5-2.2-1.5-3.7V32.6
	h-3.6v-1.6c1.6-0.3,2.9-1,3.8-2.1C111.9,27.4,112.6,25.1,112.7,22.1z"/>
<path fill="#FFFFFF" d="M124.5,30.6l8.3-0.2v17.9c0,0.5,0.1,0.8,0.4,1c0.3,0.3,0.8,0.4,1.3,0.4h2.3v1.7H125v-1.7h2.2
	c0.6,0,1.1-0.2,1.4-0.5c0.3-0.3,0.5-0.8,0.5-1.4V34.8c0-0.8-0.2-1.5-0.7-1.9c-0.5-0.4-1.2-0.6-2.1-0.6h-1.7V30.6z M130.3,18.2
	c0.7,0,1.2,0.3,1.8,0.8c0.5,0.5,0.8,1.1,0.8,1.8c0,0.7-0.2,1.2-0.7,1.7c-0.5,0.5-1.1,0.7-1.8,0.7c-0.7,0-1.3-0.2-1.8-0.7
	c-0.5-0.5-0.7-1.1-0.7-1.7c0-0.7,0.3-1.2,0.8-1.8S129.6,18.2,130.3,18.2z"/>
<path fill="#FFFFFF" d="M149,30c2.8,0,5.1,1,7,3s2.8,4.7,2.8,8c0,2.3-0.4,4.2-1.3,5.8s-2.1,2.9-3.6,3.8c-1.6,0.9-3.3,1.4-5.1,1.4
	c-2.7,0-5-1-6.8-3.1c-1.9-2-2.8-4.7-2.8-7.9c0-3.3,0.9-5.9,2.8-8C144,31,146.3,30,149,30z M149,31.6c-1.7,0-3,0.8-4.1,2.2
	c-1.1,1.5-1.6,3.9-1.6,7.1c0,3.3,0.5,5.7,1.6,7.2c1.1,1.5,2.4,2.3,4.1,2.3c1.7,0,3.1-0.8,4.2-2.3c1.1-1.5,1.6-4,1.6-7.5
	c0-3.2-0.5-5.5-1.6-7C152.2,32.3,150.8,31.6,149,31.6z"/>
<path fill="#FFFFFF" d="M161.9,30.6l6.9-0.4c0.3,1.3,0.5,2.8,0.6,4.6c0.9-1.5,2-2.6,3.3-3.4s2.7-1.1,4.3-1.1c1.4,0,2.5,0.3,3.5,0.8
	c0.9,0.5,1.7,1.4,2.2,2.6c0.6,1.2,0.8,2.5,0.8,3.9v10.1c0,0.8,0.2,1.3,0.5,1.6c0.3,0.3,0.9,0.5,1.7,0.5h1.5v1.7h-10.9v-1.7h1
	c1,0,1.7-0.2,2-0.5c0.4-0.3,0.6-0.8,0.6-1.4V39c0-1.9-0.3-3.4-0.9-4.3c-0.8-1.3-2.1-2-3.8-2c-1.7,0-3.1,0.7-4.2,2
	c-1.1,1.3-1.7,3.1-1.7,5.3v7.7c0,0.8,0.2,1.3,0.5,1.6c0.3,0.3,0.9,0.5,1.7,0.5h1.4v1.7h-11v-1.7h1.4c0.7,0,1.3-0.1,1.7-0.4
	c0.4-0.3,0.6-0.7,0.6-1.1V34.7c0-0.9-0.2-1.6-0.7-2c-0.5-0.5-1.2-0.7-2.1-0.7h-1.1V30.6z"/>
<path fill="#FFFFFF" d="M220.6,32.8l-1.8,1.4c-1-1.3-2.2-2.3-3.6-2.9s-2.9-1-4.6-1c-1.8,0-3.5,0.4-5.1,1.3c-1.6,0.9-2.8,2-3.6,3.5
	s-1.3,3.1-1.3,5c0,2.8,1,5.1,2.9,7c1.9,1.9,4.3,2.8,7.2,2.8c3.2,0,5.9-1.3,8-3.8l1.8,1.4c-1.1,1.4-2.6,2.6-4.3,3.4
	c-1.7,0.8-3.6,1.2-5.7,1.2c-4,0-7.1-1.3-9.4-4c-1.9-2.2-2.9-5-2.9-8.1c0-3.3,1.2-6.2,3.5-8.4c2.3-2.3,5.3-3.4,8.8-3.4
	c2.1,0,4.1,0.4,5.8,1.3C218.1,30.1,219.5,31.3,220.6,32.8z"/>
<path fill="#FFFFFF" d="M237.6,28c3.5,0,6.3,1.2,8.7,3.5c2.3,2.3,3.5,5.1,3.5,8.5c0,3.3-1.2,6.2-3.5,8.5c-2.3,2.3-5.2,3.5-8.5,3.5
	c-3.4,0-6.2-1.2-8.6-3.5c-2.3-2.3-3.5-5.1-3.5-8.4c0-2.2,0.5-4.2,1.6-6.1c1.1-1.9,2.5-3.3,4.3-4.4C233.5,28.5,235.5,28,237.6,28z
	 M237.7,30.2c-1.7,0-3.3,0.4-4.8,1.3s-2.7,2.1-3.5,3.6c-0.8,1.5-1.3,3.2-1.3,5c0,2.7,0.9,5,2.8,6.9c1.9,1.9,4.1,2.8,6.8,2.8
	c1.8,0,3.4-0.4,4.9-1.3c1.5-0.9,2.7-2,3.5-3.5c0.8-1.5,1.3-3.1,1.3-5c0-1.8-0.4-3.4-1.3-4.9c-0.8-1.5-2-2.6-3.6-3.5
	C241.1,30.6,239.4,30.2,237.7,30.2z"/>
<path fill="#FFFFFF" d="M256,51.4V28.5h0.5L271.7,46V28.5h2.2v22.8h-0.5l-15.1-17.3v17.3H256z"/>
<path fill="#FFFFFF" d="M281.1,51.4V28.5h0.5L296.7,46V28.5h2.2v22.8h-0.5l-15.1-17.3v17.3H281.1z"/>
<path fill="#FFFFFF" d="M306.2,28.5h13.1v2.2h-10.8v7.2h10.7v2.2h-10.7v9h10.7v2.2h-13V28.5z"/>
<path fill="#FFFFFF" d="M346,32.8l-1.8,1.4c-1-1.3-2.2-2.3-3.6-2.9s-2.9-1-4.6-1c-1.8,0-3.5,0.4-5.1,1.3c-1.6,0.9-2.8,2-3.6,3.5
	s-1.3,3.1-1.3,5c0,2.8,1,5.1,2.9,7c1.9,1.9,4.3,2.8,7.2,2.8c3.2,0,5.9-1.3,8-3.8l1.8,1.4c-1.1,1.4-2.6,2.6-4.3,3.4s-3.6,1.2-5.7,1.2
	c-4,0-7.1-1.3-9.4-4c-1.9-2.2-2.9-5-2.9-8.1c0-3.3,1.2-6.2,3.5-8.4c2.3-2.3,5.3-3.4,8.8-3.4c2.1,0,4.1,0.4,5.8,1.3
	C343.5,30.1,344.9,31.3,346,32.8z"/>
<path fill="#FFFFFF" d="M349.9,30.8v-2.2h12.5v2.2h-5.1v20.6H355V30.8H349.9z"/>
<path fill="#FFFFFF" d="M367,28.5h2.3v22.8H367V28.5z"/>
<path fill="#FFFFFF" d="M386.9,28c3.5,0,6.3,1.2,8.7,3.5c2.3,2.3,3.5,5.1,3.5,8.5c0,3.3-1.2,6.2-3.5,8.5c-2.3,2.3-5.2,3.5-8.5,3.5
	c-3.4,0-6.2-1.2-8.6-3.5c-2.3-2.3-3.5-5.1-3.5-8.4c0-2.2,0.5-4.2,1.6-6.1c1.1-1.9,2.5-3.3,4.3-4.4C382.8,28.5,384.8,28,386.9,28z
	 M387,30.2c-1.7,0-3.3,0.4-4.8,1.3c-1.5,0.9-2.7,2.1-3.5,3.6s-1.3,3.2-1.3,5c0,2.7,0.9,5,2.8,6.9c1.9,1.9,4.1,2.8,6.8,2.8
	c1.8,0,3.4-0.4,4.9-1.3c1.5-0.9,2.7-2,3.5-3.5c0.8-1.5,1.3-3.1,1.3-5c0-1.8-0.4-3.4-1.3-4.9c-0.8-1.5-2-2.6-3.6-3.5
	S388.8,30.2,387,30.2z"/>
<path fill="#FFFFFF" d="M405.3,51.4V28.5h0.5L421,46V28.5h2.2v22.8h-0.5l-15.1-17.3v17.3H405.3z"/>
</svg>
