<?xml version="1.0" encoding="utf-8"?>
<!-- Generator: Adobe Illustrator 14.0.0, SVG Export Plug-In  -->
<!DOCTYPE svg PUBLIC "-//W3C//DTD SVG 1.1//EN" "http://www.w3.org/Graphics/SVG/1.1/DTD/svg11.dtd" [
	<!ENTITY ns_flows "http://ns.adobe.com/Flows/1.0/">
]>
<svg version="1.1"
	 xmlns="http://www.w3.org/2000/svg" xmlns:xlink="http://www.w3.org/1999/xlink" xmlns:a="http://ns.adobe.com/AdobeSVGViewerExtensions/3.0/"
	 x="0px" y="0px" width="433px" height="64px" viewBox="0 -11.4 433 64" enable-background="new 0 -11.4 433 64"
	 xml:space="preserve">
<defs>
</defs>
<rect y="5.5" fill="#010101" width="153.4" height="42"/>
<rect x="51.8" y="4.6" transform="matrix(0.995 9.973863e-02 -9.973863e-02 0.995 3.073 -7.2504)" fill="#517542" width="44.5" height="45"/>
<rect x="96.5" y="1.5" transform="matrix(0.9994 -3.370325e-02 3.370325e-02 0.9994 -0.7917 3.9728)" fill="#D66C29" width="41.9" height="47.9"/>
<rect x="8.9" y="2.7" transform="matrix(0.9906 -0.137 0.137 0.9906 -3.2326 4.3323)" fill="#005273" width="42" height="46"/>
<path fill="#FFFFFF" d="M37.4,33.9l0.8,1.2c-1.1,1.1-2.3,1.6-3.6,1.6c-1,0-1.8-0.3-2.5-0.8c-0.7-0.5-1.3-1.5-1.8-2.9
	c-1.4,1.5-2.6,2.4-3.7,2.9c-1.1,0.5-2.3,0.7-3.8,0.7c-2.1,0-3.7-0.5-4.8-1.4s-1.6-2.1-1.6-3.5c0-2.1,1.3-3.9,3.8-5.3
	c2.5-1.4,5.9-2.4,10-2.8v-3.1c0-1.1-0.4-2.1-1.3-2.9s-2-1.2-3.4-1.2c-1.3,0-2.4,0.3-3.3,0.8c-0.7,0.4-1,0.8-1,1.2
	c0,0.2,0.2,0.6,0.5,1c0.4,0.6,0.6,1.1,0.6,1.6c0,0.7-0.2,1.2-0.6,1.6c-0.4,0.4-1,0.6-1.7,0.6c-0.7,0-1.3-0.2-1.8-0.7
	s-0.7-1.1-0.7-1.9c0-1.5,0.8-2.8,2.4-4s3.8-1.8,6.4-1.8c2.4,0,4.3,0.5,5.6,1.6c1.3,1.1,1.9,2.4,1.9,3.9v11.2c0,1,0.2,1.7,0.5,2.2
	c0.3,0.5,0.7,0.7,1.3,0.7C36.2,34.6,36.8,34.3,37.4,33.9z M30.2,25.2c-3.7,0.5-6.4,1.3-7.9,2.5c-1.2,0.9-1.7,2.1-1.7,3.7
	c0,1.1,0.3,2,0.9,2.6c0.6,0.6,1.4,1,2.4,1c1.7,0,3.2-0.7,4.5-2c1.3-1.3,1.9-3,1.9-4.9V25.2z"/>
<path fill="#FFFFFF" d="M65.3,15.5l7.4-0.4v8.3c0.8-2.7,1.7-4.8,2.9-6.2s2.5-2.1,4.1-2.1c1.1,0,2,0.3,2.7,1c0.7,0.7,1,1.6,1,2.7
	c0,0.9-0.2,1.6-0.7,2.2c-0.4,0.5-1,0.8-1.7,0.8c-0.7,0-1.2-0.2-1.6-0.7s-0.6-1-0.6-1.8c0-0.5,0.1-0.9,0.4-1.4
	c0.2-0.4,0.3-0.6,0.3-0.7c0-0.2-0.1-0.3-0.4-0.3c-0.6,0-1.3,0.4-2,1.1c-1.1,1-1.9,2.3-2.4,4c-0.9,2.7-1.3,4.8-1.3,6.4v4.4
	c0,0.5,0.2,0.9,0.5,1.1s1,0.4,1.8,0.4h2.6v1.6H65.5v-1.6h2c0.7,0,1.2-0.1,1.6-0.4c0.4-0.3,0.5-0.6,0.5-1V20c0-1-0.2-1.7-0.6-2.2
	c-0.4-0.5-1-0.7-1.8-0.7h-1.8V15.5z"/>
<path fill="#FFFFFF" d="M116.1,7.2h1.5v8.4h6.7v2h-6.7v13.2c0,1.1,0.3,2,0.8,2.6s1.2,0.9,2.1,0.9c1,0,1.8-0.5,2.5-1.4
	s1.1-2.4,1.2-4.6h1.5c-0.1,2.7-0.7,4.8-1.9,6.1s-2.7,2-4.5,2c-1.7,0-3-0.5-4-1.4c-1-0.9-1.4-2.1-1.4-3.7V17.6h-3.6V16
	c1.6-0.3,2.9-1,3.7-2C115.3,12.4,116,10.1,116.1,7.2z"/>
<rect x="150.9" y="5.5" fill="#010101" width="281.7" height="42"/>
<path fill="#FFFFFF" d="M182.3,19.2l-2,1.5c-1.1-1.5-2.5-2.5-4-3.3c-1.6-0.7-3.3-1.1-5.1-1.1c-2,0-3.9,0.5-5.7,1.5
	c-1.7,1-3.1,2.3-4,3.9c-1,1.7-1.4,3.5-1.4,5.6c0,3.1,1.1,5.7,3.2,7.8c2.1,2.1,4.8,3.1,8.1,3.1c3.6,0,6.6-1.4,9-4.2l2,1.5
	c-1.3,1.6-2.9,2.9-4.8,3.8c-1.9,0.9-4,1.3-6.4,1.3c-4.5,0-8-1.5-10.6-4.5c-2.2-2.5-3.3-5.6-3.3-9.1c0-3.7,1.3-6.9,3.9-9.5
	c2.6-2.6,5.9-3.8,9.9-3.8c2.4,0,4.5,0.5,6.5,1.4C179.5,16.2,181.1,17.5,182.3,19.2z"/>
<path fill="#FFFFFF" d="M201.4,13.8c3.9,0,7.1,1.3,9.7,3.9c2.6,2.6,3.9,5.8,3.9,9.6c0,3.7-1.3,6.9-3.9,9.5c-2.6,2.6-5.8,3.9-9.5,3.9
	c-3.8,0-7-1.3-9.6-3.9s-3.9-5.7-3.9-9.4c0-2.5,0.6-4.7,1.8-6.8s2.8-3.7,4.9-4.9C196.8,14.4,199,13.8,201.4,13.8z M201.5,16.3
	c-1.9,0-3.7,0.5-5.4,1.5s-3,2.3-4,4c-1,1.7-1.4,3.5-1.4,5.6c0,3,1.1,5.6,3.2,7.7c2.1,2.1,4.6,3.1,7.6,3.1c2,0,3.8-0.5,5.5-1.4
	c1.7-1,3-2.3,4-4c0.9-1.7,1.4-3.5,1.4-5.6c0-2-0.5-3.9-1.4-5.5c-0.9-1.6-2.3-3-4-3.9C205.3,16.8,203.5,16.3,201.5,16.3z"/>
<path fill="#FFFFFF" d="M222,40V14.5h0.6l17,19.6V14.5h2.5V40h-0.6l-16.9-19.4V40H222z"/>
<path fill="#FFFFFF" d="M250.1,40V14.5h0.6l17,19.6V14.5h2.5V40h-0.6l-16.9-19.4V40H250.1z"/>
<path fill="#FFFFFF" d="M278.3,14.5h14.7V17h-12.1v8h12v2.5h-12v10.1h12V40h-14.6V14.5z"/>
<path fill="#FFFFFF" d="M323,19.2l-2,1.5c-1.1-1.5-2.5-2.5-4-3.3c-1.6-0.7-3.3-1.1-5.1-1.1c-2,0-3.9,0.5-5.7,1.5
	c-1.7,1-3.1,2.3-4,3.9c-1,1.7-1.4,3.5-1.4,5.6c0,3.1,1.1,5.7,3.2,7.8c2.1,2.1,4.8,3.1,8.1,3.1c3.6,0,6.6-1.4,9-4.2l2,1.5
	c-1.3,1.6-2.9,2.9-4.8,3.8c-1.9,0.9-4,1.3-6.4,1.3c-4.5,0-8-1.5-10.6-4.5c-2.2-2.5-3.3-5.6-3.3-9.1c0-3.7,1.3-6.9,3.9-9.5
	c2.6-2.6,5.9-3.8,9.9-3.8c2.4,0,4.5,0.5,6.5,1.4C320.2,16.2,321.7,17.5,323,19.2z"/>
<path fill="#FFFFFF" d="M327.3,17v-2.5h14V17h-5.7V40H333V17H327.3z"/>
<path fill="#FFFFFF" d="M346.5,14.5h2.6V40h-2.6V14.5z"/>
<path fill="#FFFFFF" d="M368.9,13.8c3.9,0,7.1,1.3,9.7,3.9c2.6,2.6,3.9,5.8,3.9,9.6c0,3.7-1.3,6.9-3.9,9.5s-5.8,3.9-9.5,3.9
	c-3.8,0-7-1.3-9.6-3.9s-3.9-5.7-3.9-9.4c0-2.5,0.6-4.7,1.8-6.8s2.8-3.7,4.9-4.9C364.2,14.4,366.5,13.8,368.9,13.8z M369,16.3
	c-1.9,0-3.7,0.5-5.4,1.5c-1.7,1-3,2.3-4,4c-1,1.7-1.4,3.5-1.4,5.6c0,3,1.1,5.6,3.2,7.7s4.6,3.1,7.6,3.1c2,0,3.8-0.5,5.5-1.4
	c1.7-1,3-2.3,4-4c0.9-1.7,1.4-3.5,1.4-5.6c0-2-0.5-3.9-1.4-5.5c-0.9-1.6-2.3-3-4-3.9S370.9,16.3,369,16.3z"/>
<path fill="#FFFFFF" d="M389.4,40V14.5h0.6l17,19.6V14.5h2.5V40H409l-16.9-19.4V40H389.4z"/>
</svg>
