<?xml version="1.0" encoding="utf-8"?>
<!-- Generator: Adobe Illustrator 14.0.0, SVG Export Plug-In  -->
<!DOCTYPE svg PUBLIC "-//W3C//DTD SVG 1.1//EN" "http://www.w3.org/Graphics/SVG/1.1/DTD/svg11.dtd" [
	<!ENTITY ns_flows "http://ns.adobe.com/Flows/1.0/">
]>
<svg version="1.1"
	 xmlns="http://www.w3.org/2000/svg" xmlns:xlink="http://www.w3.org/1999/xlink" xmlns:a="http://ns.adobe.com/AdobeSVGViewerExtensions/3.0/"
	 x="0px" y="0px" width="397px" height="119px" viewBox="-12.2 -5.6 397 119" enable-background="new -12.2 -5.6 397 119"
	 xml:space="preserve">
<defs>
</defs>
<path fill="#517542" d="M28.1,50.1l-2.3,1.7c-1.2-1.6-2.8-2.9-4.5-3.7s-3.7-1.3-5.8-1.3c-2.3,0-4.4,0.5-6.4,1.7s-3.5,2.6-4.5,4.4
	S3,56.9,3,59.2c0,3.5,1.2,6.4,3.6,8.8s5.4,3.5,9.1,3.5c4,0,7.4-1.6,10.1-4.7l2.3,1.7c-1.4,1.8-3.2,3.2-5.4,4.2s-4.5,1.5-7.2,1.5
	c-5,0-9-1.7-11.9-5C1.2,66.3,0,62.9,0,58.9c0-4.2,1.5-7.7,4.4-10.6S11.1,44,15.5,44c2.7,0,5.1,0.5,7.3,1.6S26.7,48.1,28.1,50.1z"/>
<path fill="#517542" d="M68.6,73.5V44.7h0.6l19.1,22v-22h2.8v28.7h-0.6l-19-21.8v21.8H68.6z"/>
<path fill="#517542" d="M125,50.1l-2.3,1.7c-1.2-1.6-2.8-2.9-4.5-3.7s-3.7-1.3-5.8-1.3c-2.3,0-4.4,0.5-6.4,1.7s-3.5,2.6-4.5,4.4
	s-1.6,3.9-1.6,6.3c0,3.5,1.2,6.4,3.6,8.8s5.4,3.5,9.1,3.5c4,0,7.4-1.6,10.1-4.7l2.3,1.7c-1.4,1.8-3.2,3.2-5.4,4.2s-4.5,1.5-7.2,1.5
	c-5,0-9-1.7-11.9-5c-2.4-2.8-3.7-6.2-3.7-10.2c0-4.2,1.5-7.7,4.4-10.6s6.6-4.3,11.1-4.3c2.7,0,5.1,0.5,7.3,1.6S123.6,48.1,125,50.1z
	"/>
<path fill="#517542" d="M130.7,44.7h16.5v2.8h-13.6v9h13.5v2.8h-13.5v11.3h13.5v2.8h-16.3V44.7z"/>
<path fill="#517542" d="M152.1,44.7h5.7c3.3,0,5.5,0.1,6.6,0.4c1.6,0.4,3,1.2,4,2.5s1.6,2.8,1.6,4.7c0,1.9-0.5,3.5-1.5,4.7
	s-2.4,2.1-4.2,2.5c-1.3,0.3-3.7,0.5-7.3,0.5H155v13.4h-2.9V44.7z M155,47.5v9.7l4.9,0.1c2,0,3.4-0.2,4.3-0.5s1.6-0.9,2.1-1.7
	s0.8-1.7,0.8-2.7c0-1-0.3-1.8-0.8-2.6c-0.5-0.8-1.2-1.4-2.1-1.7s-2.2-0.5-4.2-0.5H155z"/>
<path fill="#517542" d="M173,47.5v-2.8h15.7v2.8h-6.4v25.9h-2.9V47.5H173z"/>
<path fill="#77787B" d="M196.6,56.5l6.2-0.2v14.6c0,0.4,0.1,0.7,0.3,0.8c0.3,0.2,0.6,0.4,1,0.4h1.8v1.4H197V72h1.6
	c0.5,0,0.8-0.1,1.1-0.4s0.3-0.6,0.3-1.1V59.8c0-0.7-0.2-1.2-0.5-1.5c-0.4-0.3-0.9-0.5-1.6-0.5h-1.3V56.5z M200.9,46.4
	c0.5,0,0.9,0.2,1.3,0.6s0.6,0.9,0.6,1.4c0,0.5-0.2,1-0.5,1.4c-0.4,0.4-0.8,0.6-1.3,0.6c-0.5,0-0.9-0.2-1.3-0.6s-0.6-0.9-0.6-1.4
	c0-0.5,0.2-1,0.6-1.4C200,46.6,200.4,46.4,200.9,46.4z"/>
<path fill="#77787B" d="M207.6,56.5l5.2-0.3c0.2,1.1,0.4,2.3,0.5,3.7c0.7-1.2,1.5-2.1,2.5-2.8c0.9-0.6,2-0.9,3.2-0.9
	c1,0,1.9,0.2,2.6,0.7c0.7,0.4,1.3,1.1,1.7,2.1s0.6,2,0.6,3.2v8.2c0,0.6,0.1,1.1,0.4,1.3s0.7,0.4,1.3,0.4h1.1v1.4h-8.2V72h0.8
	c0.7,0,1.2-0.1,1.5-0.4s0.4-0.6,0.4-1.1v-7.2c0-1.6-0.2-2.7-0.7-3.5c-0.6-1.1-1.6-1.6-2.8-1.6c-1.2,0-2.3,0.5-3.1,1.6
	c-0.8,1.1-1.3,2.5-1.3,4.3v6.3c0,0.6,0.1,1.1,0.4,1.3c0.3,0.3,0.7,0.4,1.3,0.4h1.1v1.4h-8.2V72h1.1c0.5,0,1-0.1,1.2-0.4
	c0.3-0.2,0.4-0.5,0.4-0.9V59.8c0-0.7-0.2-1.3-0.5-1.6c-0.4-0.4-0.9-0.6-1.5-0.6h-0.8V56.5z"/>
<path d="M246.7,46.1h1.1l8.8,24.4c0.4,1,1.1,1.5,2.2,1.5h0.8v1.4h-9.8V72h0.8c1,0,1.7-0.1,2.2-0.4c0.3-0.2,0.4-0.4,0.4-0.8
	c0-0.2,0-0.4-0.1-0.7l-2-5.7h-9.7l-1.1,3.3c-0.3,0.9-0.4,1.6-0.4,2.1c0,0.6,0.3,1.1,0.8,1.5s1.2,0.6,2.2,0.6h0.8v1.4h-8.9V72
	c1,0,1.7-0.2,2.3-0.7c0.6-0.5,1.1-1.3,1.5-2.6L246.7,46.1z M246.2,51.2l-4.4,11.9h8.7L246.2,51.2z"/>
<path d="M278.9,48.7l1.1-2.6h1l0.4,10.8h-1.1c-0.7-3-1.6-5.3-2.8-6.7c-1.4-1.8-3-2.7-4.9-2.7c-2.1,0-3.7,1-5,3
	c-1.3,2-1.9,5.4-1.9,10.2c0,4,0.7,7.1,2.2,9.2c1.3,1.8,3,2.7,5.3,2.7c2,0,3.7-0.7,5-2.1c1.3-1.4,2.2-3.5,2.6-6.3h1.2
	c-0.3,3.2-1.3,5.6-3,7.3c-1.7,1.7-3.7,2.6-6.3,2.6c-2,0-3.9-0.6-5.6-1.7s-3.1-2.7-4.1-4.8c-1-2.1-1.5-4.4-1.5-6.9
	c0-2.7,0.5-5.2,1.6-7.5c1.1-2.3,2.4-4.1,4.1-5.3c1.6-1.2,3.4-1.8,5.3-1.8c1.1,0,2.1,0.2,3.1,0.6C276.7,47.1,277.8,47.8,278.9,48.7z"
	/>
<path d="M285.3,46.7h19.9l0.5,10.1h-1.1c-0.8-5.9-2.7-8.9-5.9-8.9c-0.6,0-1.1,0.1-1.3,0.4c-0.2,0.2-0.4,0.6-0.4,1.2v21.4
	c0,0.4,0.1,0.8,0.3,1c0.2,0.2,0.6,0.3,1.1,0.3h2.5v1.4h-11.4V72h2.8c0.4,0,0.7-0.1,0.9-0.3c0.2-0.2,0.3-0.5,0.3-0.8V49.2
	c0-0.5-0.1-0.8-0.4-1c-0.3-0.2-0.7-0.4-1.2-0.4c-1.6,0-2.9,0.8-4,2.5c-0.9,1.4-1.5,3.5-1.9,6.4h-1.2L285.3,46.7z"/>
<path d="M307.7,46.7H319V48h-1.9c-0.9,0-1.4,0.1-1.6,0.4c-0.2,0.2-0.3,0.7-0.3,1.5v20.2c0,0.8,0.1,1.3,0.3,1.5
	c0.3,0.3,0.7,0.4,1.4,0.4h2.2v1.4h-11.3V72h2.1c0.8,0,1.2-0.1,1.5-0.4c0.2-0.2,0.3-0.8,0.3-1.6V49.9c0-0.8-0.1-1.2-0.3-1.4
	c-0.3-0.3-0.9-0.4-1.7-0.4h-1.9V46.7z"/>
<path d="M333.3,46.1c2.1,0,4,0.6,5.8,1.8c1.8,1.2,3.2,2.8,4.2,5c1,2.1,1.5,4.5,1.5,7.2c0,2.7-0.5,5.1-1.5,7.2s-2.4,3.8-4.2,5
	c-1.8,1.2-3.7,1.8-5.7,1.8c-2,0-3.8-0.6-5.5-1.8c-1.7-1.2-3.1-2.9-4.2-5c-1-2.2-1.6-4.6-1.6-7.3c0-2.6,0.5-5,1.5-7.1
	c1-2.1,2.4-3.8,4.2-5S331.4,46.1,333.3,46.1z M333.5,47.5c-2.2,0-3.9,1-5.2,2.9s-2,5.1-2,9.5c0,4.8,0.7,8.1,2.1,9.9s3.1,2.7,5.1,2.7
	c1.4,0,2.7-0.4,3.7-1.2c1.1-0.8,1.9-2.1,2.6-4c0.6-1.8,1-4.2,1-7.1c0-3.2-0.3-5.7-0.9-7.5c-0.6-1.8-1.4-3.1-2.6-4
	C336.1,47.9,334.9,47.5,333.5,47.5z"/>
<path d="M348.1,46.7h5.9l14.8,21V52.5c0-1.5-0.3-2.7-1-3.4c-0.6-0.7-1.5-1-2.6-1v-1.4h8.6V48c-0.9,0-1.5,0.1-2,0.4
	c-0.4,0.3-0.8,0.7-1.1,1.4c-0.3,0.7-0.5,1.5-0.5,2.3v21.2h-1.6l-15.3-21.9v16.1c0,1.5,0.3,2.5,1,3.3s1.7,1.1,3.1,1.1v1.4h-9.3V72
	c1.2,0,2.1-0.5,2.8-1.3c0.7-0.8,1-1.8,1-2.9V49.8l-0.3-0.3c-0.6-0.7-0.9-1-1.2-1.2c-0.3-0.2-0.7-0.3-1.2-0.3h-1.1V46.7z"/>
<path fill="#517542" d="M56.8,48.2l-4.7-0.6c0,0,20.8-28.6,48.4-41.9c27.6-13.3,44.4-4.5,18.3,34.8c-2.4,3.6,18.8-34.3,7.4-36.4
	C123.2,3.3,108.5-5.3,56.8,48.2z"/>
<path fill="#517542" d="M35.5,59.2c0-2.3,0.5-4.4,1.6-6.3c1.1-1.9,2.6-3.4,4.5-4.5c1.9-1.1,3.9-1.7,6-1.7c2.2,0,4.2,0.6,6.1,1.7
	c0.6,0.3,1.2,0.8,1.7,1.2l2-2.1c-2.8-2.3-6.1-3.5-10-3.5c-2.7,0-5.2,0.7-7.5,2c-2.3,1.3-4.1,3.2-5.5,5.5c-1.3,2.4-2,4.9-2,7.7
	c0,4,1.4,7.4,4,10.2l2-2.1C36.6,65.1,35.5,62.4,35.5,59.2z"/>
<path d="M39.4,98.7c-6-8,4.1-21.3,5.2-23.7c0.2-0.3,0.2-0.7,0.3-1.1c-1.2-0.2-1.9-0.6-3-1.1l1.9-0.8c0.3,0.1,0.3-0.2,0.6-0.1
	c-0.3-1.1,0.3,1.4,0.3,1.4c0,0-2.4-1.6-3.1-0.4c-3.4,5.4-8.9,15.6-7,23.4c1.5,6.5,12.8,15.2,39.9-3.8
	C102.6,72.9,49.7,112.5,39.4,98.7z"/>
<path fill="#517542" d="M61.3,52.2l-2.2,2.3c0.5,1.4,0.8,2.9,0.8,4.5c0,2.3-0.5,4.4-1.6,6.3c-1.1,1.9-2.5,3.4-4.4,4.4
	c-1.9,1.1-4,1.6-6.2,1.6c-1.1,0-2.2-0.1-3.2-0.4c-0.3-0.1-0.6-0.2-0.9-0.3l-2.1,2.2c1,0.5,2.2,0.8,3.3,1c0.9,0.2,1.9,0.3,2.9,0.3
	c4.2,0,7.8-1.5,10.7-4.4s4.4-6.5,4.4-10.7C62.9,56.6,62.3,54.3,61.3,52.2z"/>
<polygon stroke="#517542" points="53.1,63.7 53.1,98 60.9,90.1 66.4,105.3 70.2,103.7 64.6,89 75.4,89.7 "/>
</svg>
