<?xml version="1.0" encoding="utf-8"?>
<!-- Generator: Adobe Illustrator 14.0.0, SVG Export Plug-In  -->
<!DOCTYPE svg PUBLIC "-//W3C//DTD SVG 1.1//EN" "http://www.w3.org/Graphics/SVG/1.1/DTD/svg11.dtd" [
	<!ENTITY ns_flows "http://ns.adobe.com/Flows/1.0/">
]>
<svg version="1.1"
	 xmlns="http://www.w3.org/2000/svg" xmlns:xlink="http://www.w3.org/1999/xlink" xmlns:a="http://ns.adobe.com/AdobeSVGViewerExtensions/3.0/"
	 x="0px" y="0px" width="433px" height="64px" viewBox="0 -8.3 433 64" enable-background="new 0 -8.3 433 64" xml:space="preserve"
	>
<defs>
</defs>
<rect y="10.7" fill="#010101" width="186" height="45"/>
<rect x="186" y="10.7" fill="#005273" width="246.6" height="45"/>
<path fill="#FFFFFF" d="M261.5,17.6l14.3,30.6h-3.3l-4.8-10.1h-13.2l-4.8,10.1h-3.4l14.5-30.6H261.5z M261.1,24.1l-5.2,11.1h10.5
	L261.1,24.1z"/>
<path fill="#FFFFFF" d="M311.1,23.3l-2.4,1.9c-1.3-1.7-2.9-3-4.8-3.9s-3.9-1.3-6.1-1.3c-2.4,0-4.7,0.6-6.8,1.8s-3.7,2.7-4.8,4.7
	s-1.7,4.2-1.7,6.7c0,3.7,1.3,6.8,3.8,9.3c2.6,2.5,5.8,3.7,9.7,3.7c4.3,0,7.9-1.7,10.7-5l2.4,1.8c-1.5,1.9-3.4,3.4-5.7,4.5
	s-4.8,1.6-7.6,1.6c-5.4,0-9.6-1.8-12.7-5.3c-2.6-3-3.9-6.6-3.9-10.9c0-4.5,1.6-8.2,4.7-11.3c3.1-3.1,7.1-4.6,11.8-4.6
	c2.9,0,5.4,0.6,7.7,1.7C307.7,19.7,309.6,21.2,311.1,23.3z"/>
<path fill="#FFFFFF" d="M316.3,20.6v-3h16.8v3h-6.8v27.6h-3.1V20.6H316.3z"/>
<path fill="#FFFFFF" d="M339.2,17.6h3.1v30.6h-3.1V17.6z"/>
<path fill="#FFFFFF" d="M365.9,16.8c4.6,0,8.5,1.5,11.6,4.6c3.1,3.1,4.7,6.9,4.7,11.4c0,4.5-1.6,8.3-4.7,11.4
	c-3.1,3.1-6.9,4.7-11.4,4.7c-4.5,0-8.4-1.6-11.5-4.7c-3.1-3.1-4.7-6.9-4.7-11.3c0-2.9,0.7-5.7,2.1-8.2c1.4-2.5,3.4-4.5,5.8-5.9
	C360.4,17.5,363.1,16.8,365.9,16.8z M366.1,19.8c-2.3,0-4.4,0.6-6.4,1.8c-2,1.2-3.6,2.8-4.7,4.8c-1.1,2-1.7,4.2-1.7,6.7
	c0,3.6,1.3,6.7,3.8,9.2c2.5,2.5,5.6,3.8,9.1,3.8c2.4,0,4.6-0.6,6.6-1.7c2-1.2,3.6-2.7,4.7-4.7c1.1-2,1.7-4.2,1.7-6.7
	c0-2.4-0.6-4.6-1.7-6.6c-1.1-2-2.7-3.5-4.8-4.7C370.6,20.4,368.4,19.8,366.1,19.8z"/>
<path fill="#FFFFFF" d="M390.5,48.2V17.6h0.7L411.5,41V17.6h3v30.6h-0.7L393.7,25v23.2H390.5z"/>
<path fill="#FFFFFF" d="M27.7,38.9l1.7,0.5c-1.3,4.9-4.3,7.4-8.9,7.4c-3.4,0-6.1-1.1-8.2-3.3C10.1,41.2,9,38.3,9,34.6
	c0-4.3,1.2-7.6,3.5-9.9c2.3-2.4,5.1-3.5,8.3-3.5c2.4,0,4.3,0.7,5.9,2c1.6,1.3,2.3,2.8,2.3,4.4c0,1-0.3,1.8-0.9,2.4s-1.3,0.9-2.1,0.9
	c-0.8,0-1.4-0.3-2-0.8c-0.5-0.5-0.8-1.2-0.8-1.9c0-0.8,0.3-1.5,0.9-2.2c0.3-0.3,0.4-0.6,0.4-0.8c0-0.5-0.3-1-1-1.5
	C22.9,23.2,22,23,20.9,23c-2.1,0-3.7,0.8-4.8,2.3c-1.5,2.2-2.3,5.1-2.3,8.8c0,3.5,0.7,6.1,2.1,7.9c1.4,1.8,3.1,2.7,5.3,2.7
	C24.1,44.6,26.2,42.7,27.7,38.9z"/>
<path fill="#FFFFFF" d="M58.3,43.4l0.9,1.4c-1.3,1.3-2.7,1.9-4.2,1.9c-1.2,0-2.2-0.3-3-1s-1.5-1.8-2.1-3.4c-1.6,1.7-3.1,2.9-4.3,3.5
	c-1.2,0.6-2.7,0.9-4.5,0.9c-2.5,0-4.4-0.5-5.7-1.6c-1.3-1.1-1.9-2.4-1.9-4.1c0-2.5,1.5-4.6,4.4-6.3s6.9-2.8,11.8-3.3v-3.7
	c0-1.3-0.5-2.4-1.6-3.4s-2.4-1.4-4-1.4c-1.5,0-2.8,0.3-3.9,0.9c-0.8,0.5-1.2,0.9-1.2,1.4c0,0.3,0.2,0.7,0.6,1.2
	c0.5,0.7,0.7,1.3,0.7,1.8c0,0.8-0.2,1.4-0.7,1.9c-0.5,0.5-1.2,0.7-2,0.7c-0.9,0-1.6-0.3-2.2-0.9c-0.6-0.6-0.9-1.3-0.9-2.2
	c0-1.7,1-3.3,2.9-4.7c1.9-1.4,4.4-2.1,7.6-2.1c2.9,0,5.1,0.6,6.6,1.9c1.5,1.3,2.3,2.8,2.3,4.6v13.2c0,1.2,0.2,2,0.6,2.6
	c0.4,0.6,0.9,0.9,1.5,0.9C56.8,44.2,57.5,44,58.3,43.4z M49.8,33.2c-4.4,0.6-7.5,1.6-9.3,2.9c-1.4,1-2,2.5-2,4.4
	c0,1.3,0.4,2.4,1.1,3.1c0.7,0.7,1.6,1.1,2.8,1.1c2,0,3.8-0.8,5.3-2.3s2.2-3.5,2.2-5.8V33.2z"/>
<path fill="#8190A7" d="M61.7,49.9c0,0-0.3-2.5,1.3-3.4c1.6-0.8,1.8-1,3-1c1.2,0,3.9,0,3.9,0s0.4-1,0.8-1c0.5,0-15.1-15-15.1-15
	s-0.2,0.7-1.3,0.7c-1.1,0-3.6-1-3.6-3.9c0-2.9,2.3-3.6,3.7-3.6c1.5,0,1.8,0.6,1.8,0.6l14.5-12.7c0,0-0.6-1.5-1.5-2.7
	C68.4,6.9,67.9,6,69,5.3c1.1-0.7,1.7-2.1,1.7-2.1l-1.3-1.9L69.2,0h1.5l1.4,2.4L74,1.3c0,0,1.1-0.4,1.9,0.2c0.8,0.6,2.5,3.1,2.5,3.1
	L76.1,7l0.5,1.1c0,0,2.2-1.6,3.7-1.6c1.6,0,5.1,0.7,8.1,3c3,2.3,4.1,3.9,4.1,3.9L74.4,26.5c0,0-2.1-1.2-2.8-4.4
	c-0.8-3.1-1.1-7.6-0.7-8.3S57.6,24.6,57.6,24.6s0.3,0.5,0,1.9c-0.3,1.3-0.5,1.9-0.5,1.9l16.1,15.1c0,0,1.5,0.7,1.9,1.3
	c0.5,0.6,1.3,1,1.3,1l4.6-0.2c0,0,1.6,0.4,2.4,1.2c0.8,0.8,1,3.1,1,3.1H61.7z"/>
<path fill="#FFFFFF" d="M102.3,34.1H85c0.1,3.7,0.8,6.3,2.1,7.8c1.5,1.7,3.4,2.6,5.7,2.6c3.4,0,6.1-1.9,8.1-5.8l1.7,0.7
	c-2.5,4.9-6.2,7.3-10.9,7.3c-3.2,0-6-1.2-8.2-3.5s-3.3-5.3-3.3-9c0-3.9,1.1-7.1,3.3-9.5c2.2-2.4,4.9-3.6,8.1-3.6
	c2.3,0,4.4,0.6,6.1,1.8c1.7,1.2,3,2.9,3.9,5.2C101.9,29.7,102.3,31.7,102.3,34.1z M85,32.3h10.5c0.6,0,1.1-0.2,1.4-0.6
	c0.3-0.4,0.5-1.1,0.5-2.2c0-1.9-0.6-3.5-1.8-4.8c-1.2-1.3-2.6-2-4.2-2c-1.8,0-3.3,0.8-4.6,2.4C85.7,26.7,85,29.1,85,32.3z"/>
<path fill="#FFFFFF" d="M128.8,34.1h-17.3c0.1,3.7,0.8,6.3,2.1,7.8c1.5,1.7,3.4,2.6,5.7,2.6c3.4,0,6.1-1.9,8.1-5.8l1.7,0.7
	c-2.5,4.9-6.2,7.3-10.9,7.3c-3.2,0-6-1.2-8.2-3.5s-3.3-5.3-3.3-9c0-3.9,1.1-7.1,3.3-9.5c2.2-2.4,4.9-3.6,8.1-3.6
	c2.3,0,4.4,0.6,6.1,1.8c1.7,1.2,3,2.9,3.9,5.2C128.4,29.7,128.7,31.7,128.8,34.1z M111.4,32.3h10.5c0.6,0,1.1-0.2,1.4-0.6
	c0.3-0.4,0.5-1.1,0.5-2.2c0-1.9-0.6-3.5-1.8-4.8c-1.2-1.3-2.6-2-4.2-2c-1.8,0-3.3,0.8-4.6,2.4C112.1,26.7,111.5,29.1,111.4,32.3z"/>
<path fill="#FFFFFF" d="M132.1,21.9l8.7-0.4v9.8c0.9-3.2,2-5.7,3.4-7.3c1.3-1.7,2.9-2.5,4.9-2.5c1.3,0,2.4,0.4,3.1,1.2
	c0.8,0.8,1.2,1.9,1.2,3.2c0,1.1-0.3,1.9-0.8,2.5c-0.5,0.6-1.2,0.9-2,0.9c-0.8,0-1.4-0.3-1.9-0.8c-0.5-0.5-0.7-1.2-0.7-2.1
	c0-0.6,0.1-1.1,0.4-1.6c0.3-0.4,0.4-0.7,0.4-0.8c0-0.3-0.2-0.4-0.5-0.4c-0.7,0-1.5,0.4-2.4,1.2c-1.2,1.2-2.2,2.7-2.9,4.8
	c-1,3.1-1.5,5.6-1.5,7.5v5.2c0,0.6,0.2,1,0.6,1.3c0.4,0.3,1.1,0.5,2.1,0.5h3.1v1.9h-15v-1.9h2.4c0.8,0,1.4-0.2,1.8-0.5
	c0.4-0.3,0.6-0.7,0.6-1.1V27.1c0-1.2-0.2-2-0.7-2.6c-0.5-0.5-1.2-0.8-2.1-0.8h-2.1V21.9z"/>
<path fill="#FFFFFF" d="M158.9,37c1.1,3,2.3,5,3.7,6.2c1.4,1.1,3.1,1.7,5.1,1.7c1.9,0,3.3-0.4,4.3-1.2c1-0.8,1.5-1.9,1.5-3.1
	c0-0.7-0.2-1.4-0.6-1.9c-0.4-0.5-0.9-0.9-1.5-1.2s-2.4-0.7-5.1-1.2c-2.6-0.5-4.5-1.1-5.5-1.6c-1-0.6-1.8-1.4-2.4-2.4
	c-0.6-1-0.9-2.1-0.9-3.3c0-1.8,0.6-3.4,1.8-4.8c1.5-1.8,3.7-2.8,6.4-2.8c2.1,0,4.1,0.7,5.8,2l1.7-1.8h1.1l0.7,8.6h-1.7
	c-0.8-2.4-1.8-4.2-3.1-5.3c-1.3-1.1-2.9-1.6-4.8-1.6c-1.6,0-2.9,0.4-3.9,1.2c-0.9,0.8-1.4,1.8-1.4,2.9c0,1,0.4,1.9,1.3,2.5
	c0.8,0.7,2.5,1.2,5,1.6c2.9,0.5,4.7,0.9,5.6,1.2c1.4,0.5,2.5,1.3,3.3,2.4c0.8,1.1,1.2,2.4,1.2,3.9c0,2.1-0.8,3.9-2.5,5.4
	c-1.7,1.5-3.8,2.2-6.4,2.2c-2.4,0-4.6-0.8-6.7-2.4l-1.9,2.2h-1.4l-0.5-9.6H158.9z"/>
<path fill="#FFFFFF" d="M200.4,24.4h2.3v23.3h-2.3V24.4z"/>
<path fill="#FFFFFF" d="M209.7,47.7V24.4h0.5l15.5,17.8V24.4h2.3v23.3h-0.5l-15.4-17.6v17.6H209.7z"/>
</svg>
