<?xml version="1.0" encoding="utf-8"?>
<!-- Generator: Adobe Illustrator 14.0.0, SVG Export Plug-In  -->
<!DOCTYPE svg PUBLIC "-//W3C//DTD SVG 1.1//EN" "http://www.w3.org/Graphics/SVG/1.1/DTD/svg11.dtd" [
	<!ENTITY ns_flows "http://ns.adobe.com/Flows/1.0/">
]>
<svg version="1.1"
	 xmlns="http://www.w3.org/2000/svg" xmlns:xlink="http://www.w3.org/1999/xlink" xmlns:a="http://ns.adobe.com/AdobeSVGViewerExtensions/3.0/"
	 x="0px" y="0px" width="433px" height="64px" viewBox="0 -19.1 433 64" enable-background="new 0 -19.1 433 64"
	 xml:space="preserve">
<defs>
</defs>
<rect fill="#010101" width="186" height="45"/>
<rect x="186" fill="#602E1A" width="246.6" height="45"/>
<path fill="#CFB7A1" d="M68.9,25.2h-13c0.1,2.8,0.6,4.7,1.5,5.8c1.1,1.3,2.5,1.9,4.2,1.9c2.5,0,4.6-1.4,6.1-4.3l1.3,0.5
	c-1.9,3.7-4.6,5.5-8.2,5.5c-2.4,0-4.5-0.9-6.1-2.6c-1.7-1.8-2.5-4-2.5-6.7c0-2.9,0.8-5.3,2.4-7.1s3.6-2.7,6-2.7
	c1.8,0,3.3,0.5,4.5,1.4c1.3,0.9,2.2,2.2,2.9,3.9C68.6,21.9,68.9,23.4,68.9,25.2z"/>
<path fill="#FFFFFF" d="M218.2,15.5l-1.8,1.4c-1-1.3-2.2-2.3-3.5-2.9c-1.4-0.7-2.9-1-4.5-1c-1.8,0-3.5,0.4-5,1.3
	c-1.5,0.9-2.7,2-3.6,3.5c-0.8,1.5-1.3,3.1-1.3,4.9c0,2.8,0.9,5.1,2.8,6.9c1.9,1.8,4.3,2.8,7.2,2.8c3.2,0,5.8-1.2,8-3.7l1.8,1.4
	c-1.1,1.4-2.5,2.5-4.2,3.3c-1.7,0.8-3.6,1.2-5.7,1.2c-4,0-7.1-1.3-9.4-4c-1.9-2.2-2.9-4.9-2.9-8.1c0-3.3,1.2-6.1,3.5-8.4
	c2.3-2.3,5.2-3.4,8.7-3.4c2.1,0,4,0.4,5.7,1.3C215.7,12.8,217.1,14,218.2,15.5z"/>
<path fill="#FFFFFF" d="M235.1,10.7c3.4,0,6.3,1.1,8.6,3.4c2.3,2.3,3.5,5.1,3.5,8.4c0,3.3-1.2,6.1-3.5,8.4c-2.3,2.3-5.1,3.5-8.4,3.5
	c-3.4,0-6.2-1.1-8.5-3.4s-3.5-5.1-3.5-8.3c0-2.2,0.5-4.2,1.6-6c1.1-1.9,2.5-3.3,4.3-4.4S233,10.7,235.1,10.7z M235.2,12.9
	c-1.7,0-3.3,0.4-4.8,1.3c-1.5,0.9-2.7,2-3.5,3.5c-0.8,1.5-1.3,3.1-1.3,4.9c0,2.7,0.9,5,2.8,6.8c1.9,1.9,4.1,2.8,6.7,2.8
	c1.8,0,3.4-0.4,4.9-1.3c1.5-0.9,2.7-2,3.5-3.5c0.8-1.5,1.3-3.1,1.3-4.9c0-1.8-0.4-3.4-1.3-4.9c-0.8-1.5-2-2.6-3.5-3.5
	C238.5,13.4,236.9,12.9,235.2,12.9z"/>
<path fill="#FFFFFF" d="M253.3,33.9V11.3h0.5l15.1,17.3V11.3h2.2v22.6h-0.5l-14.9-17.1v17.1H253.3z"/>
<path fill="#FFFFFF" d="M278.2,33.9V11.3h0.5l15.1,17.3V11.3h2.2v22.6h-0.5l-14.9-17.1v17.1H278.2z"/>
<path fill="#FFFFFF" d="M303,11.3h13v2.2h-10.7v7.1h10.6v2.2h-10.6v8.9h10.6v2.2H303V11.3z"/>
<path fill="#FFFFFF" d="M342.6,15.5l-1.8,1.4c-1-1.3-2.2-2.3-3.5-2.9c-1.4-0.7-2.9-1-4.5-1c-1.8,0-3.5,0.4-5,1.3
	c-1.5,0.9-2.7,2-3.6,3.5c-0.8,1.5-1.3,3.1-1.3,4.9c0,2.8,0.9,5.1,2.8,6.9c1.9,1.8,4.3,2.8,7.2,2.8c3.2,0,5.8-1.2,8-3.7l1.8,1.4
	c-1.1,1.4-2.5,2.5-4.2,3.3c-1.7,0.8-3.6,1.2-5.7,1.2c-4,0-7.1-1.3-9.4-4c-1.9-2.2-2.9-4.9-2.9-8.1c0-3.3,1.2-6.1,3.5-8.4
	c2.3-2.3,5.2-3.4,8.7-3.4c2.1,0,4,0.4,5.7,1.3C340.1,12.8,341.5,14,342.6,15.5z"/>
<path fill="#FFFFFF" d="M346.4,13.5v-2.2h12.4v2.2h-5v20.4h-2.3V13.5H346.4z"/>
<path fill="#FFFFFF" d="M363.3,11.3h2.3v22.6h-2.3V11.3z"/>
<path fill="#FFFFFF" d="M383.1,10.7c3.4,0,6.3,1.1,8.6,3.4c2.3,2.3,3.5,5.1,3.5,8.4c0,3.3-1.2,6.1-3.5,8.4c-2.3,2.3-5.1,3.5-8.4,3.5
	c-3.4,0-6.2-1.1-8.5-3.4s-3.5-5.1-3.5-8.3c0-2.2,0.5-4.2,1.6-6s2.5-3.3,4.3-4.4C379.1,11.3,381,10.7,383.1,10.7z M383.2,12.9
	c-1.7,0-3.3,0.4-4.8,1.3c-1.5,0.9-2.7,2-3.5,3.5c-0.8,1.5-1.3,3.1-1.3,4.9c0,2.7,0.9,5,2.8,6.8c1.9,1.9,4.1,2.8,6.7,2.8
	c1.8,0,3.4-0.4,4.9-1.3c1.5-0.9,2.7-2,3.5-3.5c0.8-1.5,1.3-3.1,1.3-4.9c0-1.8-0.4-3.4-1.3-4.9c-0.8-1.5-2-2.6-3.5-3.5
	C386.6,13.4,384.9,12.9,383.2,12.9z"/>
<path fill="#FFFFFF" d="M401.3,33.9V11.3h0.5l15.1,17.3V11.3h2.2v22.6h-0.5l-14.9-17.1v17.1H401.3z"/>
<line fill="none" stroke="#CFB7A1" x1="83.7" y1="16.1" x2="70.6" y2="21.6"/>
<line fill="none" stroke="#602E1A" x1="75.9" y1="11.9" x2="68.7" y2="18"/>
<line fill="none" stroke="#CFB7A1" x1="41.7" y1="7.8" x2="53.1" y2="17.9"/>
<line fill="none" stroke="#602E1A" x1="51.4" y1="6.7" x2="56.2" y2="15"/>
<line fill="none" stroke="#CFB7A1" x1="72.6" y1="4.1" x2="66.2" y2="16"/>
<line fill="none" stroke="#602E1A" x1="64.8" y1="4.7" x2="62.9" y2="14"/>
<line fill="none" stroke="#CFB7A1" x1="58" y1="0.3" x2="59.2" y2="13.7"/>
<line fill="none" stroke="#602E1A" x1="42.8" y1="17.2" x2="51.7" y2="20.7"/>
<line fill="none" stroke="#CFB7A1" x1="50.5" y1="22.8" x2="36.6" y2="20.3"/>
<path fill="#FFFFFF" d="M28.2,25h-13c0.1,2.8,0.6,4.7,1.5,5.8c1.1,1.3,2.5,1.9,4.2,1.9c2.5,0,4.6-1.4,6.1-4.3l1.3,0.5
	c-1.9,3.7-4.6,5.5-8.2,5.5c-2.4,0-4.5-0.9-6.1-2.6c-1.7-1.8-2.5-4-2.5-6.7c0-2.9,0.8-5.3,2.4-7.1c1.6-1.8,3.6-2.7,6-2.7
	c1.8,0,3.3,0.5,4.5,1.4c1.3,0.9,2.2,2.2,2.9,3.9C27.9,21.7,28.2,23.2,28.2,25z M15.2,23.6h7.9c0.5,0,0.8-0.2,1.1-0.5
	c0.3-0.3,0.4-0.9,0.4-1.6c0-1.4-0.4-2.6-1.3-3.6c-0.9-1-1.9-1.5-3.1-1.5c-1.3,0-2.5,0.6-3.4,1.8C15.7,19.4,15.2,21.2,15.2,23.6z"/>
<path fill="#FFFFFF" d="M30.2,15.8h8.9v1.3c-1.2,0-1.9,0.1-2.3,0.3c-0.3,0.2-0.5,0.5-0.5,0.8c0,0.3,0.1,0.6,0.2,0.9l4.8,10.7
	l4.4-10.4c0.1-0.2,0.1-0.4,0.1-0.5c0-0.9-0.9-1.5-2.8-1.8v-1.3h7.5v1.3c-0.8,0.1-1.4,0.3-1.8,0.6c-0.5,0.3-0.8,0.8-1,1.4L41,34.5h-1
	l-7.1-15.8c-0.3-0.6-0.6-1-0.9-1.2c-0.4-0.2-0.9-0.3-1.7-0.4V15.8z"/>
<path fill="#FFFFFF" d="M69.3,25h-13c0.1,2.8,0.6,4.7,1.5,5.8c1.1,1.3,2.5,1.9,4.2,1.9c2.5,0,4.6-1.4,6.1-4.3l1.3,0.5
	c-1.9,3.7-4.6,5.5-8.2,5.5c-2.4,0-4.5-0.9-6.1-2.6c-1.7-1.8-2.5-4-2.5-6.7c0-2.9,0.8-5.3,2.4-7.1c1.6-1.8,3.6-2.7,6-2.7
	c1.8,0,3.3,0.5,4.5,1.4c1.3,0.9,2.2,2.2,2.9,3.9C69,21.7,69.3,23.2,69.3,25z M56.3,23.6h7.9c0.5,0,0.8-0.2,1.1-0.5
	c0.3-0.3,0.4-0.9,0.4-1.6c0-1.4-0.4-2.6-1.3-3.6c-0.9-1-1.9-1.5-3.1-1.5c-1.3,0-2.5,0.6-3.4,1.8C56.8,19.4,56.3,21.2,56.3,23.6z"/>
<path fill="#FFFFFF" d="M71.8,15.8l6.5-0.3v7.3c0.7-2.4,1.5-4.2,2.5-5.5s2.2-1.9,3.6-1.9c1,0,1.8,0.3,2.4,0.9
	c0.6,0.6,0.9,1.4,0.9,2.4c0,0.8-0.2,1.4-0.6,1.9c-0.4,0.5-0.9,0.7-1.5,0.7c-0.6,0-1-0.2-1.4-0.6c-0.4-0.4-0.5-0.9-0.5-1.6
	c0-0.4,0.1-0.8,0.3-1.2c0.2-0.3,0.3-0.5,0.3-0.6c0-0.2-0.1-0.3-0.4-0.3c-0.5,0-1.1,0.3-1.8,0.9c-0.9,0.9-1.6,2.1-2.1,3.6
	c-0.8,2.3-1.2,4.2-1.2,5.6v3.9c0,0.4,0.2,0.8,0.5,1c0.3,0.2,0.8,0.3,1.6,0.3h2.3v1.5H71.9v-1.5h1.8c0.6,0,1.1-0.1,1.4-0.4
	s0.5-0.5,0.5-0.9V19.7c0-0.9-0.2-1.5-0.6-1.9c-0.4-0.4-0.9-0.6-1.6-0.6h-1.6V15.8z"/>
<path fill="#FFFFFF" d="M89.3,15.8H98v1.3h-0.8c-0.8,0-1.3,0.1-1.6,0.3s-0.4,0.5-0.4,0.9c0,0.2,0,0.3,0.1,0.5l5.1,10.9l3.8-9
	c0.3-0.6,0.4-1.3,0.4-1.9c0-0.5-0.2-0.8-0.6-1.1c-0.4-0.3-1.1-0.4-2.2-0.5v-1.3h7.5v1.3c-1.5,0.1-2.4,0.8-2.9,2l-6.7,15.6
	c-1.1,2.7-2.3,4.5-3.4,5.5c-1.2,1-2.4,1.5-3.7,1.5c-1,0-1.7-0.3-2.3-0.8s-0.9-1.2-0.9-2c0-0.6,0.2-1.1,0.5-1.4
	c0.4-0.4,0.8-0.6,1.4-0.6c0.5,0,0.9,0.2,1.2,0.5c0.3,0.3,0.5,0.7,0.5,1.2c0,0.1,0,0.3-0.1,0.6c-0.1,0.2-0.1,0.3-0.1,0.4
	c0,0.3,0.2,0.5,0.6,0.5c0.4,0,0.9-0.2,1.4-0.5c0.5-0.3,1-0.8,1.5-1.5c0.5-0.7,1.3-2.2,2.4-4.5l-6.9-14.7c-0.2-0.5-0.6-0.9-0.9-1.2
	c-0.4-0.3-0.9-0.4-1.6-0.5V15.8z"/>
<path fill="#FFFFFF" d="M121.2,5.3l7.1-0.3v24.8c0,1,0.2,1.7,0.6,2.1c0.4,0.4,0.9,0.6,1.7,0.6h1.3v1.5h-6.2l-0.5-3.7
	c-0.7,1.3-1.6,2.3-2.6,3c-1,0.7-2.1,1-3.3,1c-2.1,0-3.8-0.9-5.3-2.6s-2.2-4-2.2-6.8c0-3.1,0.9-5.5,2.8-7.4c1.5-1.4,3.1-2.1,5-2.1
	c1.2,0,2.2,0.3,3.1,0.9c0.9,0.6,1.7,1.5,2.4,2.6V8.5c0-0.5-0.2-1-0.6-1.3c-0.4-0.3-1.1-0.5-2-0.5h-1.3V5.3z M120.1,16.9
	c-1.4,0-2.5,0.6-3.3,1.7c-0.8,1.1-1.2,3.1-1.2,5.8c0,3,0.4,5,1.3,6.2c0.8,1.2,1.9,1.8,3.2,1.8c1.4,0,2.6-0.7,3.6-2
	c1-1.3,1.5-3.3,1.5-5.9c0-2.5-0.5-4.4-1.6-5.8C122.6,17.5,121.5,16.9,120.1,16.9z"/>
<path fill="#FFFFFF" d="M152.9,32l0.7,1.1c-0.9,1-2,1.5-3.1,1.5c-0.9,0-1.6-0.2-2.2-0.7c-0.6-0.5-1.1-1.3-1.6-2.5
	c-1.2,1.3-2.3,2.2-3.2,2.6s-2,0.6-3.3,0.6c-1.9,0-3.3-0.4-4.2-1.2c-1-0.8-1.5-1.8-1.5-3.1c0-1.9,1.1-3.4,3.3-4.7
	c2.2-1.2,5.2-2.1,8.8-2.5v-2.7c0-1-0.4-1.8-1.2-2.5c-0.8-0.7-1.8-1-3-1c-1.1,0-2.1,0.2-2.9,0.7c-0.6,0.3-0.9,0.7-0.9,1
	c0,0.2,0.2,0.5,0.5,0.9c0.4,0.5,0.6,1,0.6,1.4c0,0.6-0.2,1.1-0.6,1.4c-0.4,0.4-0.9,0.6-1.5,0.6c-0.6,0-1.2-0.2-1.6-0.7
	c-0.4-0.4-0.6-1-0.6-1.7c0-1.3,0.7-2.4,2.2-3.5s3.3-1.6,5.7-1.6c2.2,0,3.8,0.5,4.9,1.4c1.1,0.9,1.7,2.1,1.7,3.4V30
	c0,0.9,0.1,1.5,0.4,1.9c0.3,0.4,0.7,0.6,1.1,0.6C151.8,32.6,152.3,32.4,152.9,32z M146.5,24.3c-3.3,0.5-5.6,1.2-7,2.2
	c-1,0.8-1.5,1.9-1.5,3.3c0,1,0.3,1.8,0.8,2.3s1.2,0.8,2.1,0.8c1.5,0,2.8-0.6,4-1.7c1.1-1.2,1.7-2.6,1.7-4.3V24.3z"/>
<path fill="#FFFFFF" d="M155.3,15.8h8.7v1.3h-0.8c-0.8,0-1.3,0.1-1.6,0.3s-0.4,0.5-0.4,0.9c0,0.2,0,0.3,0.1,0.5l5.1,10.9l3.8-9
	c0.3-0.6,0.4-1.3,0.4-1.9c0-0.5-0.2-0.8-0.6-1.1c-0.4-0.3-1.1-0.4-2.2-0.5v-1.3h7.5v1.3c-1.5,0.1-2.4,0.8-2.9,2l-6.7,15.6
	c-1.1,2.7-2.3,4.5-3.4,5.5c-1.2,1-2.4,1.5-3.7,1.5c-1,0-1.7-0.3-2.3-0.8s-0.9-1.2-0.9-2c0-0.6,0.2-1.1,0.5-1.4
	c0.4-0.4,0.8-0.6,1.4-0.6c0.5,0,0.9,0.2,1.2,0.5c0.3,0.3,0.5,0.7,0.5,1.2c0,0.1,0,0.3-0.1,0.6c-0.1,0.2-0.1,0.3-0.1,0.4
	c0,0.3,0.2,0.5,0.6,0.5c0.4,0,0.9-0.2,1.4-0.5c0.5-0.3,1-0.8,1.5-1.5c0.5-0.7,1.3-2.2,2.4-4.5l-6.9-14.7c-0.2-0.5-0.6-0.9-0.9-1.2
	c-0.4-0.3-0.9-0.4-1.6-0.5V15.8z"/>
</svg>
