<?xml version="1.0" encoding="utf-8"?>
<!-- Generator: Adobe Illustrator 14.0.0, SVG Export Plug-In  -->
<!DOCTYPE svg PUBLIC "-//W3C//DTD SVG 1.1//EN" "http://www.w3.org/Graphics/SVG/1.1/DTD/svg11.dtd" [
	<!ENTITY ns_flows "http://ns.adobe.com/Flows/1.0/">
]>
<svg version="1.1"
	 xmlns="http://www.w3.org/2000/svg" xmlns:xlink="http://www.w3.org/1999/xlink" xmlns:a="http://ns.adobe.com/AdobeSVGViewerExtensions/3.0/"
	 x="0px" y="0px" width="397px" height="119px" viewBox="-14.1 -4.4 397 119" enable-background="new -14.1 -4.4 397 119"
	 xml:space="preserve">
<defs>
</defs>
<path fill="#517542" d="M0,45.5h3.2v29.2h12.4v3.1H0V45.5z"/>
<path fill="#517542" d="M20.3,45.5h3.2v32.3h-3.2V45.5z"/>
<path fill="#517542" d="M31,77.9V45.5h0.7l21.5,24.8V45.5h3.2v32.3h-0.7L34.3,53.4v24.5H31z"/>
<path fill="#517542" d="M64.2,45.5h3.3v12.1l12.9-12.1h4.3L69.3,60L86,77.9h-4.3L67.5,62.8v15.1h-3.3V45.5z"/>
<path fill="#77787B" d="M100.1,48.7v-3.2h17.7v3.2h-7.2v29.2h-3.3V48.7H100.1z"/>
<path fill="#517542" d="M144,48.2l-4.7-0.4c0,0,21.1-28.7,48.7-42c27.6-13.3,44.4-4.5,18.3,34.8c-2.4,3.6,18.8-34.3,7.4-36.4
	C210.6,3.3,195.7-5.3,144,48.2z"/>
<path d="M130.6,75c0,0-2.4-0.7-2.9,0.2c-3.2,5.5-9.1,15.5-7.2,23.3c1.5,6.5,12.8,15.2,39.9-3.8c28.2-19.7-24.8,20-35.1,6.2
	c-6-8,4.1-21.3,5.2-23.7S130.6,75,130.6,75z"/>
<path d="M172.8,47.4h12.1v1.4h-2.9c-0.5,0-0.8,0.1-1,0.4s-0.3,0.7-0.3,1.2v22.4c0,0.5,0.1,0.9,0.4,1.1s0.8,0.3,1.7,0.3h3.7
	c1.9,0,3.5-0.7,4.8-2.1c1.2-1.4,2.1-3.9,2.7-7.3h1.2l-0.6,10.9h-21.7v-1.4h2.1c0.7,0,1.2-0.1,1.5-0.5c0.3-0.3,0.4-0.8,0.4-1.4V50.3
	c0-0.5-0.1-0.8-0.4-1.1c-0.2-0.2-0.6-0.4-1.1-0.4h-2.6V47.4z"/>
<path d="M198,47.4h20.6l0.5,9.6h-1.2c-0.5-3-1.2-5.1-2.2-6.3c-1-1.2-2.3-1.8-4-1.8h-5.1c-0.4,0-0.7,0.1-0.9,0.4
	c-0.2,0.2-0.3,0.6-0.3,1.1v10.1h2.2c1.2,0,2.2-0.5,2.9-1.4c0.7-0.9,1.1-2.4,1.2-4.3h1.2v13.1h-1.2c-0.1-2.2-0.5-3.7-1.2-4.7
	c-0.8-0.9-1.8-1.4-3.1-1.4h-2v11.3c0,0.4,0.1,0.7,0.4,0.9s0.7,0.3,1.3,0.3h4c4.4,0,6.9-3,7.5-9.1h1.3l-0.4,10.6H198v-1.4h1.8
	c0.7,0,1.2-0.1,1.5-0.4s0.4-0.6,0.4-1.1V50.4c0-0.5-0.1-0.9-0.4-1.1c-0.2-0.2-0.6-0.4-1.2-0.4H198V47.4z"/>
<path d="M234.2,46.8h1.2l9.3,25.9c0.4,1,1.1,1.6,2.3,1.6h0.8v1.4h-10.4v-1.4h0.8c1.1,0,1.8-0.1,2.3-0.4c0.3-0.2,0.5-0.5,0.5-0.8
	c0-0.2,0-0.4-0.1-0.7l-2.2-6h-10.3l-1.2,3.4c-0.3,0.9-0.5,1.6-0.5,2.2c0,0.6,0.3,1.2,0.8,1.6s1.3,0.7,2.3,0.7h0.9v1.4h-9.4v-1.4
	c1,0,1.8-0.2,2.4-0.7c0.6-0.5,1.1-1.4,1.6-2.7L234.2,46.8z M233.7,52.3L229,64.9h9.2L233.7,52.3z"/>
<path d="M248.6,47.4H262c2.6,0,4.6,0.6,6.1,1.9s2.2,3,2.2,5.1c0,1.3-0.3,2.4-0.9,3.3c-0.6,1-1.4,1.8-2.5,2.3s-2.8,1-5.1,1.3
	c1.7,0.5,2.8,1,3.5,1.5c0.6,0.5,1.1,1.1,1.5,1.9c0.4,0.8,0.8,2.3,1.3,4.6c0.4,1.7,0.7,2.8,1.1,3.4c0.3,0.5,0.6,0.7,1,0.7
	c0.4,0,0.7-0.3,1-0.9c0.3-0.6,0.5-1.6,0.6-3.1h1.2c-0.2,4.3-1.7,6.5-4.4,6.5c-0.9,0-1.6-0.2-2.2-0.7c-0.6-0.5-1.1-1.2-1.4-2.1
	c-0.2-0.7-0.5-2.5-0.8-5.4c-0.2-1.7-0.5-2.9-0.8-3.6s-1-1.3-1.8-1.7c-0.8-0.4-1.8-0.7-2.9-0.7h-2.1V73c0,0.5,0.1,0.8,0.3,1
	c0.3,0.2,0.7,0.4,1.3,0.4h2.5v1.4h-12.1v-1.4h2.5c0.6,0,1-0.1,1.2-0.4c0.3-0.2,0.4-0.6,0.4-1V50.3c0-0.5-0.1-0.8-0.4-1.1
	c-0.3-0.2-0.7-0.4-1.2-0.4h-2.5V47.4z M256.5,60.5h3.1c2.1,0,3.7-0.4,4.8-1.3c1.2-0.8,1.8-2.4,1.8-4.5c0-1.5-0.2-2.7-0.7-3.5
	c-0.4-0.9-1-1.5-1.7-1.8c-0.7-0.3-2.1-0.5-4.2-0.5c-1.4,0-2.2,0.1-2.6,0.3c-0.3,0.2-0.5,0.6-0.5,1.1V60.5z"/>
<path d="M275.1,47.4h6.2L297,69.7V53.6c0-1.6-0.3-2.8-1-3.6c-0.6-0.7-1.5-1.1-2.8-1.1v-1.4h9.1v1.4c-0.9,0-1.6,0.1-2.1,0.4
	c-0.5,0.3-0.9,0.8-1.2,1.5c-0.3,0.7-0.5,1.6-0.5,2.4v22.5h-1.7l-16.2-23.2v17.1c0,1.5,0.4,2.7,1.1,3.5c0.7,0.8,1.8,1.2,3.3,1.2v1.4
	h-9.9v-1.4c1.2-0.1,2.2-0.5,3-1.3c0.7-0.8,1.1-1.9,1.1-3.1V50.8l-0.3-0.4c-0.6-0.7-1-1.1-1.2-1.2c-0.3-0.2-0.8-0.3-1.3-0.3h-1.2
	V47.4z"/>
<path d="M304.3,47.4h12v1.4h-2.1c-0.9,0-1.5,0.1-1.7,0.4c-0.2,0.2-0.4,0.8-0.4,1.6v21.5c0,0.9,0.1,1.4,0.3,1.6
	c0.3,0.3,0.8,0.4,1.5,0.4h2.3v1.4h-12v-1.4h2.3c0.8,0,1.3-0.1,1.5-0.4c0.2-0.3,0.4-0.8,0.4-1.7V50.8c0-0.8-0.1-1.3-0.3-1.5
	c-0.3-0.3-0.9-0.4-1.8-0.4h-2V47.4z"/>
<path d="M319.1,47.4h6.2L341,69.7V53.6c0-1.6-0.3-2.8-1-3.6c-0.6-0.7-1.5-1.1-2.8-1.1v-1.4h9.1v1.4c-0.9,0-1.6,0.1-2.1,0.4
	c-0.5,0.3-0.9,0.8-1.2,1.5c-0.3,0.7-0.5,1.6-0.5,2.4v22.5h-1.7l-16.2-23.2v17.1c0,1.5,0.4,2.7,1.1,3.5c0.7,0.8,1.8,1.2,3.3,1.2v1.4
	h-9.9v-1.4c1.2-0.1,2.2-0.5,3-1.3c0.7-0.8,1.1-1.9,1.1-3.1V50.8l-0.3-0.4c-0.6-0.7-1-1.1-1.2-1.2c-0.3-0.2-0.8-0.3-1.3-0.3h-1.2
	V47.4z"/>
<path d="M367.2,49.7l1.4-2.8h1.2l0.7,11.3h-1.1c-0.9-3.3-1.9-5.6-3.1-7.1c-1.5-1.8-3.3-2.8-5.2-2.8c-1.5,0-2.9,0.5-4.1,1.4
	c-1.2,0.9-2.1,2.3-2.7,4.2c-0.6,1.9-1,4.5-1,7.9c0,3.3,0.3,5.8,1,7.7c0.6,1.9,1.5,3.2,2.6,4.1c1.1,0.9,2.4,1.3,4,1.3
	c2,0,3.6-0.6,4.7-1.9c1.1-1.3,1.7-2.9,1.7-4.8v-2.7c0-0.4-0.2-0.7-0.4-1c-0.3-0.2-0.8-0.3-1.5-0.3h-2.2v-1.3H374v1.3h-1.5
	c-0.7,0-1.1,0.1-1.4,0.4s-0.4,0.6-0.4,1.1v10.8h-1.2c-0.4-1.7-0.9-3.3-1.3-4.8c-0.9,1.6-1.9,2.7-3.1,3.5c-1.2,0.8-2.6,1.2-4.1,1.2
	c-2.2,0-4.2-0.6-6.1-1.8s-3.3-3-4.4-5.2c-1.1-2.2-1.6-4.7-1.6-7.6c0-2.8,0.5-5.4,1.6-7.6s2.6-4,4.5-5.3c1.9-1.3,3.8-2,5.7-2
	c1.1,0,2.2,0.2,3.2,0.6C364.8,47.9,366,48.6,367.2,49.7z"/>
<path fill="#595959" d="M124.4,61.8c0-2.6,0.6-4.9,1.8-7.1c1.2-2.1,2.9-3.8,5-5c2.1-1.2,4.4-1.9,6.8-1.9c1.8,0,3.5,0.3,5.2,1
	l2.3-2.5c-2.3-1.1-4.8-1.6-7.7-1.6c-3,0-5.8,0.8-8.4,2.3c-2.6,1.5-4.6,3.6-6.1,6.2c-1.5,2.7-2.3,5.5-2.3,8.6c0,3.2,0.8,6,2.3,8.6
	l2.4-2.6C124.8,66,124.4,64,124.4,61.8z"/>
<path fill="#595959" d="M150.7,50.3l-2.2,2.4c0.5,0.6,1,1.3,1.5,2c1.2,2.1,1.8,4.4,1.8,7c0,2.6-0.6,4.9-1.8,7c-1.2,2.1-2.9,3.8-5,5
	c-2.1,1.2-4.5,1.8-7,1.8c-3.1,0-5.8-0.9-8.1-2.7l-2.2,2.4c3,2.3,6.4,3.4,10.4,3.4c4.7,0,8.7-1.6,12-4.9c3.3-3.3,4.9-7.3,4.9-12
	C155.1,57.2,153.6,53.4,150.7,50.3z"/>
<polygon stroke="#517542" points="144.3,62.1 144.3,96.4 152.2,88.5 157.6,103.7 161.5,102.2 155.8,87.5 166.7,88.2 "/>
</svg>
