<?xml version="1.0" encoding="utf-8"?>
<!-- Generator: Adobe Illustrator 14.0.0, SVG Export Plug-In  -->
<!DOCTYPE svg PUBLIC "-//W3C//DTD SVG 1.1//EN" "http://www.w3.org/Graphics/SVG/1.1/DTD/svg11.dtd" [
	<!ENTITY ns_flows "http://ns.adobe.com/Flows/1.0/">
]>
<svg version="1.1"
	 xmlns="http://www.w3.org/2000/svg" xmlns:xlink="http://www.w3.org/1999/xlink" xmlns:a="http://ns.adobe.com/AdobeSVGViewerExtensions/3.0/"
	 x="0px" y="0px" width="433px" height="64px" viewBox="0 -4.5 433 64" enable-background="new 0 -4.5 433 64" xml:space="preserve"
	>
<defs>
</defs>
<path fill="#FFFFFF" d="M261.5,21.4l14.3,30.6h-3.3l-4.8-10.1h-13.2l-4.8,10.1h-3.4l14.5-30.6H261.5z M261.1,27.9l-5.2,11.1h10.5
	L261.1,27.9z"/>
<path fill="#FFFFFF" d="M311.1,27l-2.4,1.9c-1.3-1.7-2.9-3-4.8-3.9s-3.9-1.3-6.1-1.3c-2.4,0-4.7,0.6-6.8,1.8s-3.7,2.7-4.8,4.7
	s-1.7,4.2-1.7,6.7c0,3.7,1.3,6.8,3.8,9.3c2.6,2.5,5.8,3.7,9.7,3.7c4.3,0,7.9-1.7,10.7-5l2.4,1.8c-1.5,1.9-3.4,3.4-5.7,4.5
	s-4.8,1.6-7.6,1.6c-5.4,0-9.6-1.8-12.7-5.3c-2.6-3-3.9-6.6-3.9-10.9c0-4.5,1.6-8.2,4.7-11.3c3.1-3.1,7.1-4.6,11.8-4.6
	c2.9,0,5.4,0.6,7.7,1.7C307.7,23.4,309.6,25,311.1,27z"/>
<path fill="#FFFFFF" d="M316.3,24.4v-3h16.8v3h-6.8v27.6h-3.1V24.4H316.3z"/>
<path fill="#FFFFFF" d="M339.2,21.4h3.1v30.6h-3.1V21.4z"/>
<path fill="#FFFFFF" d="M365.9,20.6c4.6,0,8.5,1.5,11.6,4.6c3.1,3.1,4.7,6.9,4.7,11.4c0,4.5-1.6,8.3-4.7,11.4
	c-3.1,3.1-6.9,4.7-11.4,4.7c-4.5,0-8.4-1.6-11.5-4.7c-3.1-3.1-4.7-6.9-4.7-11.3c0-2.9,0.7-5.7,2.1-8.2c1.4-2.5,3.4-4.5,5.8-5.9
	C360.4,21.3,363.1,20.6,365.9,20.6z M366.1,23.6c-2.3,0-4.4,0.6-6.4,1.8c-2,1.2-3.6,2.8-4.7,4.8c-1.1,2-1.7,4.2-1.7,6.7
	c0,3.6,1.3,6.7,3.8,9.2c2.5,2.5,5.6,3.8,9.1,3.8c2.4,0,4.6-0.6,6.6-1.7c2-1.2,3.6-2.7,4.7-4.7c1.1-2,1.7-4.2,1.7-6.7
	c0-2.4-0.6-4.6-1.7-6.6c-1.1-2-2.7-3.5-4.8-4.7C370.6,24.2,368.4,23.6,366.1,23.6z"/>
<path fill="#FFFFFF" d="M390.5,51.9V21.4h0.7l20.4,23.4V21.4h3v30.6h-0.7l-20.2-23.2v23.2H390.5z"/>
<rect y="14.4" fill="#010101" width="204.5" height="45"/>
<rect x="202.5" y="14.4" fill="#517542" width="230.1" height="45"/>
<path fill="#75B152" d="M37,51.4c0,0,6-19.6-2.6-51.4C49.9,28.2,40.1,45.3,37,51.4z"/>
<path fill="#517542" d="M44.8,32.5c0,0,0.7-24.4,11.7-28.1C50.1,14.8,48.4,20.4,44.8,32.5z"/>
<text transform="matrix(1 0 0 1 11.5562 51.3647)" fill="#FFFFFF" font-family="'Century'" font-size="45.3866">e</text>
<text transform="matrix(1 0 0 1 47.0679 51.3638)" fill="#FFFFFF" font-family="'Century'" font-size="45.3866">olution</text>
<text transform="matrix(1 0 0 1 251.7549 51.478)" fill="#FFFFFF" font-family="'CenturyGothic'" font-size="41.299" letter-spacing="2">ACTION</text>
<text transform="matrix(0.7 0 0 0.7 212.0303 51.3628)" fill="#FFFFFF" font-family="'CenturyGothic'" font-size="40.1896" letter-spacing="1.4">in</text>
</svg>
