<?xml version="1.0" encoding="utf-8"?>
<!-- Generator: Adobe Illustrator 14.0.0, SVG Export Plug-In  -->
<!DOCTYPE svg PUBLIC "-//W3C//DTD SVG 1.1//EN" "http://www.w3.org/Graphics/SVG/1.1/DTD/svg11.dtd" [
	<!ENTITY ns_flows "http://ns.adobe.com/Flows/1.0/">
]>
<svg version="1.1"
	 xmlns="http://www.w3.org/2000/svg" xmlns:xlink="http://www.w3.org/1999/xlink" xmlns:a="http://ns.adobe.com/AdobeSVGViewerExtensions/3.0/"
	 x="0px" y="0px" width="433px" height="64px" viewBox="-0.4 -17.9 433 64" enable-background="new -0.4 -17.9 433 64"
	 xml:space="preserve">
<defs>
</defs>
<rect fill="#010101" width="236.4" height="45"/>
<path fill="#F99C1C" d="M192.4,18.5L192.4,18.5c-0.1,0.2-0.2,0.3-0.3,0.4c0,0,0,0.1-0.1,0.1c-0.5,0.8-0.9,1.6-1.2,2.4l0,0
	c-0.7,2-1,4.3-0.6,6.5l0,0c0.1,0.5,0.2,1,0.4,1.5c0.2,0.7,0.4,1.3,0.7,1.9l0,0c1,2,2.5,3.8,4.5,5.1l0,0c0.2,0.1,0.3,0.2,0.5,0.3
	c0.8,0.5,1.6,0.9,2.4,1.2l-0.8-3l3.6-1l-2.4-0.9l0,0c-1.3-0.7-2.4-1.8-3.2-3l-0.9-1.9l0,0c-0.4-1.4-0.5-2.9-0.1-4.3l0.8-2.1l0,0
	c1-1.9,2.7-3.3,4.8-4l2.6-2.7l-2.2-2.2C197.5,13.6,194.4,15.5,192.4,18.5z"/>
<path fill="#D66C29" d="M209.7,15.2c-0.2-0.1-0.3-0.2-0.5-0.3c-0.8-0.5-1.6-0.9-2.4-1.2l0.8,3l-3.6,1l2.4,0.9l0,0
	c1.3,0.7,2.4,1.7,3.2,3l1,2l0,0c0.4,1.5,0.5,3,0.1,4.5l-0.7,1.9l0,0c-1,1.9-2.7,3.3-4.8,4l-2.6,2.7l2.2,2.2c3.3-0.6,6.3-2.4,8.4-5.3
	l0,0c0,0,0-0.1,0.1-0.1c0-0.1,0.1-0.1,0.1-0.2l0,0c0.1-0.1,0.2-0.3,0.3-0.4c0,0,0-0.1,0.1-0.1c0.5-0.8,0.9-1.6,1.2-2.4l-0.1,0
	c0.7-2.1,0.9-4.3,0.5-6.6l0,0c0,0,0,0,0,0c0-0.1,0-0.2,0-0.2l0,0c0-0.2-0.1-0.3-0.1-0.5c0,0,0-0.1,0-0.1c-0.2-0.9-0.5-1.7-0.9-2.5
	l0,0C213.2,18.4,211.7,16.6,209.7,15.2L209.7,15.2z"/>
<rect x="232.4" fill="#D66C29" width="199.8" height="45"/>
<path fill="#FFFFFF" d="M9.1,27.4c0.6,1.6,1.2,2.6,1.9,3.2s1.6,0.9,2.7,0.9c1,0,1.7-0.2,2.3-0.6c0.5-0.4,0.8-1,0.8-1.6
	c0-0.4-0.1-0.7-0.3-1c-0.2-0.3-0.5-0.5-0.8-0.6c-0.3-0.1-1.2-0.3-2.7-0.6c-1.4-0.3-2.3-0.6-2.9-0.9c-0.5-0.3-1-0.7-1.3-1.2
	c-0.3-0.5-0.5-1.1-0.5-1.7c0-0.9,0.3-1.8,0.9-2.5c0.8-1,1.9-1.4,3.4-1.4c1.1,0,2.1,0.3,3.1,1l0.9-0.9h0.6l0.4,4.5h-0.9
	c-0.4-1.3-0.9-2.2-1.6-2.8c-0.7-0.6-1.5-0.8-2.5-0.8c-0.9,0-1.5,0.2-2,0.6c-0.5,0.4-0.7,0.9-0.7,1.5c0,0.5,0.2,1,0.7,1.3
	c0.4,0.4,1.3,0.6,2.6,0.9c1.5,0.3,2.5,0.5,2.9,0.6c0.7,0.3,1.3,0.7,1.7,1.2s0.6,1.2,0.6,2.1c0,1.1-0.4,2.1-1.3,2.8
	c-0.9,0.8-2,1.2-3.3,1.2c-1.3,0-2.4-0.4-3.5-1.2l-1,1.1H8.5l-0.3-5H9.1z"/>
<path fill="#FFFFFF" d="M30,28.4l0.9,0.3c-0.7,2.6-2.3,3.9-4.6,3.9c-1.8,0-3.2-0.6-4.3-1.7c-1.1-1.2-1.7-2.7-1.7-4.6
	c0-2.2,0.6-4,1.8-5.2s2.7-1.8,4.3-1.8c1.2,0,2.3,0.3,3.1,1c0.8,0.7,1.2,1.4,1.2,2.3c0,0.5-0.2,0.9-0.5,1.2s-0.7,0.5-1.1,0.5
	c-0.4,0-0.7-0.1-1-0.4s-0.4-0.6-0.4-1c0-0.4,0.2-0.8,0.5-1.1c0.1-0.2,0.2-0.3,0.2-0.4c0-0.3-0.2-0.5-0.5-0.8
	c-0.4-0.2-0.8-0.4-1.4-0.4c-1.1,0-1.9,0.4-2.5,1.2c-0.8,1.2-1.2,2.7-1.2,4.6c0,1.8,0.4,3.2,1.1,4.1c0.7,0.9,1.6,1.4,2.8,1.4
	C28.1,31.3,29.3,30.4,30,28.4z"/>
<path fill="#FFFFFF" d="M32.4,19.5l5-0.1v10.9c0,0.3,0.1,0.5,0.2,0.6c0.2,0.2,0.5,0.3,0.8,0.3h1.4v1h-7.2v-1H34
	c0.4,0,0.7-0.1,0.9-0.3c0.2-0.2,0.3-0.5,0.3-0.8v-8c0-0.5-0.1-0.9-0.4-1.1c-0.3-0.3-0.7-0.4-1.3-0.4h-1V19.5z M35.9,11.9
	c0.4,0,0.8,0.2,1.1,0.5c0.3,0.3,0.5,0.7,0.5,1.1c0,0.4-0.1,0.8-0.4,1.1c-0.3,0.3-0.7,0.4-1.1,0.4s-0.8-0.2-1.1-0.5s-0.5-0.7-0.5-1.1
	c0-0.4,0.2-0.8,0.5-1.1C35.2,12.1,35.5,11.9,35.9,11.9z"/>
<path fill="#FFFFFF" d="M53.2,25.9h-9.1c0,1.9,0.4,3.3,1.1,4.1c0.8,0.9,1.8,1.3,3,1.3c1.8,0,3.2-1,4.3-3l0.9,0.4
	c-1.3,2.6-3.2,3.8-5.7,3.8c-1.7,0-3.1-0.6-4.3-1.8s-1.7-2.8-1.7-4.7c0-2.1,0.6-3.7,1.7-5c1.1-1.3,2.5-1.9,4.2-1.9
	c1.2,0,2.3,0.3,3.2,0.9c0.9,0.6,1.6,1.5,2,2.7C53,23.6,53.2,24.6,53.2,25.9z M44.2,24.9h5.5c0.3,0,0.6-0.1,0.8-0.3
	c0.2-0.2,0.3-0.6,0.3-1.1c0-1-0.3-1.8-0.9-2.5c-0.6-0.7-1.3-1-2.2-1c-0.9,0-1.7,0.4-2.4,1.3C44.5,22,44.2,23.3,44.2,24.9z"/>
<path fill="#FFFFFF" d="M55.2,19.5l4.2-0.3c0.2,0.8,0.3,1.7,0.4,2.8c0.6-0.9,1.2-1.6,2-2.1c0.8-0.5,1.6-0.7,2.6-0.7
	c0.8,0,1.5,0.2,2.1,0.5s1,0.8,1.4,1.6c0.3,0.7,0.5,1.5,0.5,2.4v6.2c0,0.5,0.1,0.8,0.3,1c0.2,0.2,0.6,0.3,1,0.3h0.9v1h-6.7v-1h0.6
	c0.6,0,1-0.1,1.2-0.3c0.2-0.2,0.4-0.5,0.4-0.9v-5.4c0-1.2-0.2-2.1-0.5-2.6c-0.5-0.8-1.3-1.2-2.3-1.2c-1,0-1.9,0.4-2.5,1.2
	s-1,1.9-1,3.2v4.7c0,0.5,0.1,0.8,0.3,1c0.2,0.2,0.6,0.3,1,0.3H62v1h-6.7v-1h0.9c0.4,0,0.8-0.1,1-0.3c0.2-0.2,0.3-0.4,0.3-0.7V22
	c0-0.5-0.1-1-0.4-1.2c-0.3-0.3-0.7-0.4-1.3-0.4h-0.6V19.5z"/>
<path fill="#FFFFFF" d="M75.4,14.3h0.9v5.2h4.1v1.2h-4.1v8.1c0,0.7,0.2,1.2,0.5,1.6c0.3,0.4,0.8,0.6,1.3,0.6c0.6,0,1.1-0.3,1.6-0.9
	c0.4-0.6,0.7-1.5,0.8-2.8h0.9c-0.1,1.7-0.4,2.9-1.1,3.7c-0.7,0.8-1.6,1.2-2.8,1.2c-1,0-1.9-0.3-2.5-0.9s-0.9-1.3-0.9-2.2v-8.5h-2.2
	v-0.9c1-0.2,1.8-0.6,2.3-1.3C74.9,17.5,75.4,16.1,75.4,14.3z"/>
<path fill="#FFFFFF" d="M82.6,19.5l5-0.1v10.9c0,0.3,0.1,0.5,0.2,0.6c0.2,0.2,0.5,0.3,0.8,0.3h1.4v1h-7.2v-1h1.3
	c0.4,0,0.7-0.1,0.9-0.3c0.2-0.2,0.3-0.5,0.3-0.8v-8c0-0.5-0.1-0.9-0.4-1.1c-0.3-0.3-0.7-0.4-1.3-0.4h-1V19.5z M86.1,11.9
	c0.4,0,0.8,0.2,1.1,0.5c0.3,0.3,0.5,0.7,0.5,1.1c0,0.4-0.1,0.8-0.4,1.1c-0.3,0.3-0.7,0.4-1.1,0.4s-0.8-0.2-1.1-0.5s-0.5-0.7-0.5-1.1
	c0-0.4,0.2-0.8,0.5-1.1C85.4,12.1,85.7,11.9,86.1,11.9z"/>
<path fill="#FFFFFF" d="M95.9,19.5H99v1.2h-3.2v9.2c0,0.4,0.1,0.7,0.3,0.9c0.3,0.2,0.6,0.3,1.1,0.3H99v1h-7.8v-1h1.1
	c0.5,0,0.8-0.1,1-0.2s0.3-0.4,0.3-0.8v-9.5h-2.2v-1.2h2.2v-1c0-2.2,0.5-3.9,1.4-5.1c0.9-1.2,2.1-1.8,3.4-1.8c1,0,1.8,0.2,2.4,0.7
	c0.6,0.5,0.9,1.1,0.9,1.9c0,0.5-0.1,0.9-0.4,1.2c-0.3,0.3-0.6,0.5-1,0.5c-0.4,0-0.7-0.1-0.9-0.4c-0.2-0.2-0.4-0.5-0.4-0.9
	c0-0.4,0.2-0.8,0.5-1c0.3-0.2,0.4-0.4,0.4-0.5c0-0.2-0.1-0.3-0.3-0.4c-0.2-0.1-0.5-0.2-0.9-0.2c-0.8,0-1.4,0.3-1.9,1
	c-0.5,0.7-0.8,1.7-0.8,3V19.5z"/>
<path fill="#FFFFFF" d="M100.5,19.5l5-0.1v10.9c0,0.3,0.1,0.5,0.2,0.6c0.2,0.2,0.5,0.3,0.8,0.3h1.4v1h-7.2v-1h1.3
	c0.4,0,0.7-0.1,0.9-0.3c0.2-0.2,0.3-0.5,0.3-0.8v-8c0-0.5-0.1-0.9-0.4-1.1c-0.3-0.3-0.7-0.4-1.3-0.4h-1V19.5z M104,11.9
	c0.4,0,0.8,0.2,1.1,0.5c0.3,0.3,0.5,0.7,0.5,1.1c0,0.4-0.1,0.8-0.4,1.1c-0.3,0.3-0.7,0.4-1.1,0.4s-0.8-0.2-1.1-0.5s-0.5-0.7-0.5-1.1
	c0-0.4,0.2-0.8,0.5-1.1C103.3,12.1,103.6,11.9,104,11.9z"/>
<path fill="#FFFFFF" d="M119.1,28.4l0.9,0.3c-0.7,2.6-2.3,3.9-4.6,3.9c-1.8,0-3.2-0.6-4.3-1.7c-1.1-1.2-1.7-2.7-1.7-4.6
	c0-2.2,0.6-4,1.8-5.2s2.7-1.8,4.3-1.8c1.2,0,2.3,0.3,3.1,1c0.8,0.7,1.2,1.4,1.2,2.3c0,0.5-0.2,0.9-0.5,1.2s-0.7,0.5-1.1,0.5
	c-0.4,0-0.7-0.1-1-0.4s-0.4-0.6-0.4-1c0-0.4,0.2-0.8,0.5-1.1c0.1-0.2,0.2-0.3,0.2-0.4c0-0.3-0.2-0.5-0.5-0.8
	c-0.4-0.2-0.8-0.4-1.4-0.4c-1.1,0-1.9,0.4-2.5,1.2c-0.8,1.2-1.2,2.7-1.2,4.6c0,1.8,0.4,3.2,1.1,4.1c0.7,0.9,1.6,1.4,2.8,1.4
	C117.3,31.3,118.4,30.4,119.1,28.4z"/>
<path fill="#FFFFFF" d="M130.2,19.5l3.6-0.2c0.2,0.9,0.3,1.8,0.4,2.7c0.7-1,1.4-1.7,2.1-2.1c0.7-0.4,1.4-0.6,2.3-0.6
	c0.9,0,1.6,0.2,2.2,0.7c0.6,0.5,1,1.2,1.3,2.2c0.6-1,1.3-1.7,2-2.2s1.5-0.7,2.4-0.7c1.2,0,2,0.3,2.6,1c0.7,0.9,1.1,2.1,1.1,3.5V30
	c0,0.4,0.1,0.6,0.3,0.8c0.3,0.2,0.6,0.3,1.1,0.3h0.6v1h-6.4v-1h0.6c0.5,0,0.9-0.1,1.1-0.3c0.2-0.2,0.3-0.5,0.3-0.8v-6.3
	c0-0.9-0.2-1.7-0.7-2.2c-0.5-0.5-1.1-0.8-1.8-0.8c-0.6,0-1.1,0.2-1.5,0.5c-0.5,0.3-0.8,0.7-1.1,1.3c-0.4,0.8-0.6,1.5-0.6,2V30
	c0,0.4,0.1,0.6,0.3,0.8c0.2,0.2,0.5,0.3,0.9,0.3h0.9v1h-6.5v-1h0.7c0.5,0,0.8-0.1,1-0.3c0.2-0.2,0.3-0.4,0.3-0.7v-5.8
	c0-1.2-0.2-2.1-0.7-2.7s-1-0.8-1.8-0.8c-1,0-1.7,0.3-2.2,1c-0.7,0.9-1.1,2-1.1,3.2V30c0,0.4,0.1,0.7,0.3,0.8
	c0.2,0.2,0.6,0.3,1.1,0.3h0.6v1h-6.4v-1h1c0.4,0,0.6-0.1,0.8-0.3c0.2-0.2,0.3-0.4,0.3-0.7v-8.3c0-0.5-0.1-0.8-0.4-1
	s-0.7-0.4-1.4-0.4V19.5z"/>
<path fill="#FFFFFF" d="M165.9,25.9h-9.1c0,1.9,0.4,3.3,1.1,4.1c0.8,0.9,1.8,1.3,3,1.3c1.8,0,3.2-1,4.3-3l0.9,0.4
	c-1.3,2.6-3.2,3.8-5.7,3.8c-1.7,0-3.1-0.6-4.3-1.8s-1.7-2.8-1.7-4.7c0-2.1,0.6-3.7,1.7-5c1.1-1.3,2.5-1.9,4.2-1.9
	c1.2,0,2.3,0.3,3.2,0.9c0.9,0.6,1.6,1.5,2,2.7C165.7,23.6,165.9,24.6,165.9,25.9z M156.8,24.9h5.5c0.3,0,0.6-0.1,0.8-0.3
	c0.2-0.2,0.3-0.6,0.3-1.1c0-1-0.3-1.8-0.9-2.5c-0.6-0.7-1.3-1-2.2-1c-0.9,0-1.7,0.4-2.4,1.3C157.2,22,156.9,23.3,156.8,24.9z"/>
<path fill="#FFFFFF" d="M171.2,14.3h0.9v5.2h4.1v1.2h-4.1v8.1c0,0.7,0.2,1.2,0.5,1.6c0.3,0.4,0.8,0.6,1.3,0.6c0.6,0,1.1-0.3,1.6-0.9
	c0.4-0.6,0.7-1.5,0.8-2.8h0.9c-0.1,1.7-0.4,2.9-1.1,3.7c-0.7,0.8-1.6,1.2-2.8,1.2c-1,0-1.9-0.3-2.5-0.9s-0.9-1.3-0.9-2.2v-8.5h-2.2
	v-0.9c1-0.2,1.8-0.6,2.3-1.3C170.7,17.5,171.1,16.1,171.2,14.3z"/>
<path fill="#FFFFFF" d="M178.3,12.1l4.8-0.2v9.8c0.7-0.9,1.4-1.5,2.1-1.9s1.6-0.6,2.4-0.6c0.8,0,1.5,0.2,2.2,0.6
	c0.5,0.3,0.9,0.8,1.3,1.6c0.4,0.8,0.5,1.7,0.5,2.7v6c0,0.4,0.1,0.7,0.3,0.8c0.2,0.2,0.5,0.3,0.9,0.3h1.1v1h-6.8v-1h0.8
	c0.6,0,1-0.1,1.2-0.3s0.3-0.5,0.3-0.8v-6c0-1.1-0.3-1.9-0.8-2.5c-0.5-0.6-1.2-0.9-2-0.9c-0.6,0-1.2,0.2-1.7,0.5s-1,0.8-1.4,1.5
	s-0.6,1.4-0.6,2.2v5.1c0,0.5,0.1,0.8,0.3,1c0.2,0.2,0.5,0.3,0.9,0.3h1.1v1h-6.7v-1h0.8c0.5,0,0.9-0.1,1.1-0.3s0.3-0.5,0.3-0.9V14.8
	c0-0.5-0.1-0.9-0.4-1.2c-0.3-0.3-0.7-0.4-1.2-0.4h-0.9V12.1z"/>
<path fill="#FFFFFF" d="M218.1,12.1l4.9-0.2v17.3c0,0.7,0.1,1.2,0.4,1.4c0.3,0.3,0.6,0.4,1.2,0.4h0.9v1h-4.3l-0.3-2.6
	c-0.5,0.9-1.1,1.6-1.8,2.1c-0.7,0.5-1.5,0.7-2.3,0.7c-1.4,0-2.7-0.6-3.7-1.8s-1.5-2.8-1.5-4.8c0-2.1,0.6-3.9,1.9-5.1
	c1-1,2.2-1.5,3.5-1.5c0.8,0,1.5,0.2,2.2,0.6c0.6,0.4,1.2,1,1.7,1.8v-7.1c0-0.4-0.1-0.7-0.4-0.9c-0.3-0.2-0.7-0.3-1.4-0.3h-0.9V12.1z
	 M217.3,20.2c-1,0-1.7,0.4-2.3,1.2c-0.6,0.8-0.9,2.2-0.9,4.1c0,2.1,0.3,3.5,0.9,4.4s1.3,1.3,2.3,1.3c1,0,1.8-0.5,2.5-1.4
	c0.7-0.9,1-2.3,1-4.1c0-1.7-0.4-3.1-1.1-4C219,20.6,218.2,20.2,217.3,20.2z"/>
<path fill="#FFFFFF" d="M256.7,17.6l-1.5,1.1c-0.8-1.1-1.8-1.9-3-2.4c-1.2-0.6-2.4-0.8-3.8-0.8c-1.5,0-2.9,0.4-4.2,1.1
	c-1.3,0.7-2.3,1.7-3,2.9s-1.1,2.6-1.1,4.1c0,2.3,0.8,4.2,2.4,5.8c1.6,1.5,3.6,2.3,6,2.3c2.7,0,4.9-1,6.7-3.1l1.5,1.1
	c-0.9,1.2-2.1,2.1-3.5,2.8c-1.4,0.7-3,1-4.7,1c-3.3,0-5.9-1.1-7.8-3.3c-1.6-1.9-2.4-4.1-2.4-6.8c0-2.8,1-5.1,2.9-7
	c1.9-1.9,4.4-2.8,7.3-2.8c1.8,0,3.4,0.4,4.8,1.1C254.6,15.4,255.8,16.3,256.7,17.6z"/>
<path fill="#FFFFFF" d="M270.9,13.6c2.9,0,5.3,1,7.2,2.9c1.9,1.9,2.9,4.3,2.9,7.1c0,2.8-1,5.1-2.9,7.1s-4.3,2.9-7.1,2.9
	c-2.8,0-5.2-1-7.1-2.9c-1.9-1.9-2.9-4.3-2.9-7c0-1.8,0.4-3.5,1.3-5.1c0.9-1.6,2.1-2.8,3.6-3.7C267.4,14,269.1,13.6,270.9,13.6z
	 M270.9,15.4c-1.4,0-2.7,0.4-4,1.1c-1.3,0.7-2.2,1.7-2.9,3s-1.1,2.6-1.1,4.1c0,2.3,0.8,4.2,2.3,5.7c1.6,1.6,3.4,2.3,5.6,2.3
	c1.5,0,2.8-0.4,4.1-1.1c1.3-0.7,2.2-1.7,2.9-2.9c0.7-1.2,1.1-2.6,1.1-4.1c0-1.5-0.4-2.9-1.1-4.1c-0.7-1.2-1.7-2.2-3-2.9
	C273.7,15.8,272.4,15.4,270.9,15.4z"/>
<path fill="#FFFFFF" d="M286.1,33v-19h0.4l12.6,14.5V14.1h1.9v19h-0.4l-12.5-14.4V33H286.1z"/>
<path fill="#FFFFFF" d="M307,33v-19h0.4L320,28.6V14.1h1.9v19h-0.4l-12.5-14.4V33H307z"/>
<path fill="#FFFFFF" d="M327.8,14.1h10.9v1.9h-9v5.9h8.9v1.9h-8.9v7.5h8.9V33h-10.8V14.1z"/>
<path fill="#FFFFFF" d="M360.9,17.6l-1.5,1.1c-0.8-1.1-1.8-1.9-3-2.4c-1.2-0.6-2.4-0.8-3.8-0.8c-1.5,0-2.9,0.4-4.2,1.1
	c-1.3,0.7-2.3,1.7-3,2.9s-1.1,2.6-1.1,4.1c0,2.3,0.8,4.2,2.4,5.8c1.6,1.5,3.6,2.3,6,2.3c2.7,0,4.9-1,6.7-3.1l1.5,1.1
	c-0.9,1.2-2.1,2.1-3.5,2.8c-1.4,0.7-3,1-4.7,1c-3.3,0-5.9-1.1-7.8-3.3c-1.6-1.9-2.4-4.1-2.4-6.8c0-2.8,1-5.1,2.9-7
	c1.9-1.9,4.4-2.8,7.3-2.8c1.8,0,3.4,0.4,4.8,1.1C358.8,15.4,360,16.3,360.9,17.6z"/>
<path fill="#FFFFFF" d="M364.2,15.9v-1.9h10.4v1.9h-4.2V33h-1.9V15.9H364.2z"/>
<path fill="#FFFFFF" d="M378.3,14.1h1.9v19h-1.9V14.1z"/>
<path fill="#FFFFFF" d="M394.9,13.6c2.9,0,5.3,1,7.2,2.9c1.9,1.9,2.9,4.3,2.9,7.1c0,2.8-1,5.1-2.9,7.1s-4.3,2.9-7.1,2.9
	c-2.8,0-5.2-1-7.1-2.9c-1.9-1.9-2.9-4.3-2.9-7c0-1.8,0.4-3.5,1.3-5.1c0.9-1.6,2.1-2.8,3.6-3.7C391.5,14,393.2,13.6,394.9,13.6z
	 M395,15.4c-1.4,0-2.7,0.4-4,1.1c-1.3,0.7-2.2,1.7-2.9,3s-1.1,2.6-1.1,4.1c0,2.3,0.8,4.2,2.3,5.7c1.6,1.6,3.4,2.3,5.6,2.3
	c1.5,0,2.8-0.4,4.1-1.1c1.3-0.7,2.2-1.7,2.9-2.9c0.7-1.2,1.1-2.6,1.1-4.1c0-1.5-0.4-2.9-1.1-4.1c-0.7-1.2-1.7-2.2-3-2.9
	C397.8,15.8,396.4,15.4,395,15.4z"/>
<path fill="#FFFFFF" d="M410.2,33v-19h0.4l12.6,14.5V14.1h1.9v19h-0.4l-12.5-14.4V33H410.2z"/>
</svg>
