<?xml version="1.0" encoding="utf-8"?>
<!-- Generator: Adobe Illustrator 14.0.0, SVG Export Plug-In  -->
<!DOCTYPE svg PUBLIC "-//W3C//DTD SVG 1.1//EN" "http://www.w3.org/Graphics/SVG/1.1/DTD/svg11.dtd" [
	<!ENTITY ns_flows "http://ns.adobe.com/Flows/1.0/">
]>
<svg version="1.1"
	 xmlns="http://www.w3.org/2000/svg" xmlns:xlink="http://www.w3.org/1999/xlink" xmlns:a="http://ns.adobe.com/AdobeSVGViewerExtensions/3.0/"
	 x="0px" y="0px" width="433px" height="64px" viewBox="0 -18.5 433 64" enable-background="new 0 -18.5 433 64"
	 xml:space="preserve">
<defs>
</defs>
<rect fill="#010101" width="224.6" height="45"/>
<path fill="#FFFFFF" d="M26.2,26.2h-13c0.1,2.8,0.6,4.7,1.6,5.9c1.1,1.3,2.5,1.9,4.3,1.9c2.5,0,4.6-1.4,6.1-4.3l1.3,0.5
	c-1.9,3.7-4.6,5.5-8.2,5.5c-2.4,0-4.5-0.9-6.2-2.6c-1.7-1.8-2.5-4-2.5-6.8c0-3,0.8-5.3,2.5-7.2c1.6-1.8,3.7-2.7,6.1-2.7
	c1.8,0,3.3,0.5,4.6,1.4c1.3,0.9,2.2,2.2,2.9,3.9C26,22.9,26.2,24.4,26.2,26.2z M13.2,24.8h7.9c0.5,0,0.8-0.2,1.1-0.5
	c0.3-0.3,0.4-0.9,0.4-1.6c0-1.4-0.4-2.6-1.3-3.6c-0.9-1-1.9-1.5-3.1-1.5c-1.3,0-2.5,0.6-3.4,1.8C13.7,20.6,13.2,22.4,13.2,24.8z"/>
<path fill="#FFFFFF" d="M28.7,17h8.8v1.3c-1.4,0.1-2.1,0.3-2.1,0.8c0,0.2,0.1,0.5,0.3,0.8l3.1,4.2l3.1-3.9c0.2-0.3,0.3-0.6,0.3-0.8
	c0-0.6-0.8-0.9-2.4-1.1V17h7.7v1.3c-1.8,0.3-3.3,1.1-4.2,2.3l-3.6,4.5l5.6,7.3c0.4,0.5,0.8,0.8,1.2,1c0.4,0.2,1.1,0.3,1.9,0.3v1.5
	h-9.3v-1.5h0.7c0.7,0,1.2-0.1,1.5-0.2c0.2-0.1,0.3-0.2,0.3-0.4c0-0.1-0.1-0.4-0.4-0.7l-3.6-4.8l-2.9,3.8c-0.4,0.5-0.6,1-0.6,1.3
	c0,0.3,0.1,0.6,0.4,0.7c0.4,0.2,1.1,0.4,2,0.4v1.5h-7.9v-1.5c1-0.1,1.7-0.3,2.2-0.6c0.9-0.5,1.6-1.2,2.3-2.1l3.6-4.6l-5.4-6.9
	c-0.6-0.8-1.5-1.2-2.8-1.2V17z"/>
<path fill="#FFFFFF" d="M56.2,16.6c0.3,1.4,0.5,2.7,0.5,3.9c0.9-1.4,1.8-2.4,2.8-3c1-0.6,2.1-0.9,3.2-0.9c1.2,0,2.4,0.4,3.6,1.1
	s2.1,1.9,2.8,3.4c0.7,1.5,1.1,3.1,1.1,5c0,3-0.9,5.4-2.6,7.3c-1.4,1.6-3.2,2.3-5.2,2.3c-1.1,0-2.2-0.3-3.1-0.9s-1.7-1.5-2.4-2.6v7.4
	c0,0.6,0.1,1,0.4,1.2c0.4,0.3,0.8,0.5,1.5,0.5h1.3v1.4h-9.7v-1.4h1.3c0.6,0,1.1-0.1,1.4-0.4c0.3-0.2,0.5-0.6,0.5-1V20.8
	c0-0.9-0.2-1.5-0.6-1.9c-0.4-0.4-1.3-0.6-2.6-0.6V17L56.2,16.6z M61.9,18.4c-1.4,0-2.6,0.7-3.6,2c-1,1.4-1.5,3.3-1.5,5.9
	c0,2.6,0.5,4.5,1.4,5.8s2.1,1.9,3.6,1.9c1.4,0,2.4-0.5,3.2-1.6c0.9-1.4,1.4-3.4,1.4-6.1c0-2.8-0.4-4.8-1.3-6
	C64.3,19,63.2,18.4,61.9,18.4z"/>
<path fill="#FFFFFF" d="M90.4,26.2h-13c0.1,2.8,0.6,4.7,1.6,5.9c1.1,1.3,2.5,1.9,4.3,1.9c2.5,0,4.6-1.4,6.1-4.3l1.3,0.5
	c-1.9,3.7-4.6,5.5-8.2,5.5c-2.4,0-4.5-0.9-6.2-2.6c-1.7-1.8-2.5-4-2.5-6.8c0-3,0.8-5.3,2.5-7.2c1.6-1.8,3.7-2.7,6.1-2.7
	c1.8,0,3.3,0.5,4.6,1.4c1.3,0.9,2.2,2.2,2.9,3.9C90.2,22.9,90.4,24.4,90.4,26.2z M77.4,24.8h7.9c0.5,0,0.8-0.2,1.1-0.5
	c0.3-0.3,0.4-0.9,0.4-1.6c0-1.4-0.4-2.6-1.3-3.6c-0.9-1-1.9-1.5-3.1-1.5c-1.3,0-2.5,0.6-3.4,1.8C77.9,20.6,77.4,22.4,77.4,24.8z"/>
<path fill="#FFFFFF" d="M92.9,17l6.6-0.3V24c0.7-2.4,1.5-4.3,2.5-5.5s2.2-1.9,3.7-1.9c1,0,1.8,0.3,2.4,0.9c0.6,0.6,0.9,1.4,0.9,2.4
	c0,0.8-0.2,1.5-0.6,1.9s-0.9,0.7-1.5,0.7c-0.6,0-1.1-0.2-1.4-0.6c-0.4-0.4-0.5-0.9-0.5-1.6c0-0.4,0.1-0.8,0.3-1.2
	c0.2-0.3,0.3-0.5,0.3-0.6c0-0.2-0.1-0.3-0.4-0.3c-0.5,0-1.1,0.3-1.8,0.9c-0.9,0.9-1.7,2.1-2.2,3.6c-0.8,2.4-1.2,4.2-1.2,5.7v3.9
	c0,0.4,0.2,0.8,0.5,1c0.3,0.2,0.8,0.4,1.6,0.4h2.3v1.5H93.1v-1.5h1.8c0.6,0,1.1-0.1,1.4-0.4c0.3-0.2,0.5-0.5,0.5-0.9V20.9
	c0-0.9-0.2-1.5-0.6-1.9c-0.4-0.4-0.9-0.6-1.6-0.6h-1.6V17z"/>
<path fill="#FFFFFF" d="M123.1,17l5.2-0.3c0.3,1.4,0.5,2.6,0.6,3.9c1-1.4,2-2.4,3-3c1-0.6,2.1-0.9,3.3-0.9c1.3,0,2.3,0.3,3.1,1
	c0.8,0.7,1.4,1.7,1.9,3.2c0.9-1.4,1.8-2.5,2.9-3.2s2.2-1,3.5-1c1.7,0,2.9,0.5,3.7,1.5c1.1,1.3,1.6,3,1.6,5v9c0,0.5,0.1,0.9,0.4,1.1
	c0.4,0.3,0.9,0.4,1.6,0.4h0.9v1.5h-9.2v-1.5h0.9c0.8,0,1.3-0.1,1.6-0.4c0.3-0.3,0.5-0.6,0.5-1.2v-9.1c0-1.3-0.3-2.4-1-3.1
	c-0.7-0.7-1.5-1.1-2.6-1.1c-0.8,0-1.6,0.2-2.2,0.7c-0.7,0.4-1.2,1.1-1.6,1.9c-0.6,1.2-0.8,2.1-0.8,2.9v7.8c0,0.5,0.1,0.9,0.4,1.2
	c0.3,0.3,0.7,0.4,1.3,0.4h1.2v1.5h-9.3v-1.5h1.1c0.7,0,1.2-0.1,1.5-0.4c0.3-0.3,0.5-0.6,0.5-1v-8.4c0-1.8-0.3-3.1-0.9-3.9
	c-0.6-0.8-1.5-1.2-2.5-1.2c-1.4,0-2.4,0.5-3.2,1.4c-1,1.3-1.6,2.9-1.6,4.6v7.3c0,0.6,0.1,0.9,0.4,1.1c0.4,0.3,0.9,0.4,1.6,0.4h0.9
	v1.5h-9.2v-1.5h1.4c0.5,0,0.9-0.1,1.2-0.4c0.3-0.3,0.4-0.6,0.4-1V20.4c0-0.7-0.2-1.2-0.5-1.5c-0.3-0.3-1-0.5-2-0.6V17z"/>
<path fill="#FFFFFF" d="M174.5,26.2h-13c0.1,2.8,0.6,4.7,1.6,5.9c1.1,1.3,2.5,1.9,4.3,1.9c2.5,0,4.6-1.4,6.1-4.3l1.3,0.5
	c-1.9,3.7-4.6,5.5-8.2,5.5c-2.4,0-4.5-0.9-6.2-2.6c-1.7-1.8-2.5-4-2.5-6.8c0-3,0.8-5.3,2.5-7.2c1.6-1.8,3.7-2.7,6.1-2.7
	c1.8,0,3.3,0.5,4.6,1.4c1.3,0.9,2.2,2.2,2.9,3.9C174.2,22.9,174.5,24.4,174.5,26.2z M161.4,24.8h7.9c0.5,0,0.8-0.2,1.1-0.5
	c0.3-0.3,0.4-0.9,0.4-1.6c0-1.4-0.4-2.6-1.3-3.6c-0.9-1-1.9-1.5-3.1-1.5c-1.3,0-2.5,0.6-3.4,1.8C162,20.6,161.5,22.4,161.4,24.8z"/>
<path fill="#FFFFFF" d="M177.3,17l6-0.4c0.2,1.1,0.4,2.5,0.5,4c0.8-1.3,1.8-2.3,2.9-3s2.4-1,3.8-1c1.2,0,2.2,0.2,3,0.7
	c0.8,0.5,1.5,1.2,2,2.2c0.5,1,0.7,2.2,0.7,3.4v8.9c0,0.7,0.1,1.1,0.4,1.4c0.3,0.3,0.8,0.4,1.5,0.4h1.3v1.5h-9.6v-1.5h0.9
	c0.9,0,1.5-0.1,1.8-0.4c0.3-0.3,0.5-0.7,0.5-1.2v-7.8c0-1.7-0.3-3-0.8-3.8c-0.7-1.2-1.8-1.8-3.3-1.8c-1.5,0-2.7,0.6-3.7,1.8
	c-1,1.2-1.5,2.7-1.5,4.6v6.7c0,0.7,0.2,1.1,0.5,1.4c0.3,0.3,0.8,0.4,1.5,0.4h1.3v1.5h-9.6v-1.5h1.3c0.6,0,1.1-0.1,1.4-0.4
	c0.3-0.3,0.5-0.6,0.5-1V20.6c0-0.8-0.2-1.4-0.6-1.8c-0.4-0.4-1-0.6-1.8-0.6h-0.9V17z"/>
<path fill="#FFFFFF" d="M206.4,9.5h1.3V17h5.9v1.8h-5.9v11.7c0,1,0.2,1.8,0.7,2.3c0.5,0.5,1.1,0.8,1.8,0.8c0.9,0,1.6-0.4,2.3-1.2
	c0.6-0.8,1-2.2,1.1-4h1.3c-0.1,2.4-0.6,4.2-1.7,5.4c-1,1.2-2.4,1.8-4,1.8c-1.5,0-2.7-0.4-3.5-1.2c-0.8-0.8-1.3-1.9-1.3-3.2V18.8
	h-3.2v-1.4c1.4-0.2,2.5-0.8,3.3-1.8C205.7,14.1,206.4,12.1,206.4,9.5z"/>
<path fill="#D66C29" d="M111.2,14c0,0,0.8,0.5,0.9,1.3c0.1,0.7,0,9.2,0,9.2l-5.5,11c0,0-1.6,4.7,0.7,5.5s13.2,0.4,14.4,0
	c1.2-0.4,2.6-2.1,1.6-4.4c-1-2.3-6.1-12-6.1-12v-8.6c0,0,0.1-1.5,0.5-1.8C118.3,13.7,111.2,14,111.2,14z"/>
<path fill="#FAA51A" d="M106.2,38.9c0,0,0.1-5.1,4-8.4c3.9-3.3,2.5-6.7,2.5-6.7s1.6,3.3-0.4,7.9C110.2,36.3,106.2,38.9,106.2,38.9z"
	/>
<circle fill="#FAA51A" cx="117.6" cy="6.1" r="1"/>
<circle fill="#D66C29" cx="112.6" cy="6.1" r="2.8"/>
<circle fill="#FAA51A" cx="111.4" cy="7" r="1.2"/>
<circle fill="#FAA51A" cx="114.7" cy="10.9" r="1"/>
<rect x="224.6" fill="#D66C29" width="207.9" height="45"/>
<path fill="#FFFFFF" d="M236.2,15.5h2v20.2h-2V15.5z"/>
<path fill="#FFFFFF" d="M244.3,35.7V15.5h0.4l13.4,15.5V15.5h2v20.2h-0.5l-13.3-15.3v15.3H244.3z"/>
<path fill="#FFFFFF" d="M289.2,9.4l12.2,26.1h-2.8l-4.1-8.6h-11.2l-4.1,8.6h-2.9l12.3-26.1H289.2z M288.9,14.9l-4.5,9.4h8.9
	L288.9,14.9z"/>
<path fill="#FFFFFF" d="M331.5,14.2l-2.1,1.6c-1.1-1.5-2.5-2.6-4.1-3.4c-1.6-0.8-3.3-1.1-5.2-1.1c-2.1,0-4,0.5-5.8,1.5
	c-1.8,1-3.1,2.3-4.1,4c-1,1.7-1.5,3.6-1.5,5.7c0,3.2,1.1,5.8,3.3,8s4.9,3.2,8.3,3.2c3.7,0,6.7-1.4,9.2-4.3l2.1,1.6
	c-1.3,1.7-2.9,2.9-4.9,3.8c-1.9,0.9-4.1,1.4-6.5,1.4c-4.6,0-8.2-1.5-10.8-4.6c-2.2-2.6-3.3-5.7-3.3-9.3c0-3.8,1.3-7,4-9.6
	c2.7-2.6,6-3.9,10.1-3.9c2.4,0,4.6,0.5,6.6,1.4C328.7,11.1,330.3,12.5,331.5,14.2z"/>
<path fill="#FFFFFF" d="M336,11.9V9.4h14.3v2.6h-5.8v23.5h-2.7V11.9H336z"/>
<path fill="#FFFFFF" d="M355.5,9.4h2.6v26.1h-2.6V9.4z"/>
<path fill="#FFFFFF" d="M378.3,8.7c4,0,7.3,1.3,9.9,4c2.7,2.6,4,5.9,4,9.7c0,3.8-1.3,7.1-4,9.7c-2.7,2.7-5.9,4-9.7,4
	c-3.9,0-7.1-1.3-9.8-4c-2.7-2.6-4-5.9-4-9.6c0-2.5,0.6-4.8,1.8-7s2.9-3.8,5-5C373.6,9.3,375.9,8.7,378.3,8.7z M378.4,11.3
	c-1.9,0-3.8,0.5-5.5,1.5c-1.7,1-3.1,2.4-4.1,4.1c-1,1.7-1.5,3.6-1.5,5.7c0,3.1,1.1,5.7,3.2,7.9c2.2,2.1,4.7,3.2,7.8,3.2
	c2,0,3.9-0.5,5.6-1.5c1.7-1,3.1-2.3,4-4c1-1.7,1.4-3.6,1.4-5.7c0-2.1-0.5-3.9-1.4-5.6s-2.3-3-4.1-4
	C382.3,11.8,380.4,11.3,378.4,11.3z"/>
<path fill="#FFFFFF" d="M399.3,35.5V9.4h0.6l17.4,20v-20h2.6v26.1h-0.6L402,15.7v19.8H399.3z"/>
</svg>
