<?xml version="1.0" encoding="utf-8"?>
<!-- Generator: Adobe Illustrator 14.0.0, SVG Export Plug-In  -->
<!DOCTYPE svg PUBLIC "-//W3C//DTD SVG 1.1//EN" "http://www.w3.org/Graphics/SVG/1.1/DTD/svg11.dtd" [
	<!ENTITY ns_flows "http://ns.adobe.com/Flows/1.0/">
]>
<svg version="1.1"
	 xmlns="http://www.w3.org/2000/svg" xmlns:xlink="http://www.w3.org/1999/xlink" xmlns:a="http://ns.adobe.com/AdobeSVGViewerExtensions/3.0/"
	 x="0px" y="0px" width="5.5in" height="0.75in" viewBox="0 -4 360.6 35" enable-background="new 0 -4 360.6 35"
	 xml:space="preserve">
<defs>
</defs>
<rect x="142.8" y="11.8" fill-rule="evenodd" clip-rule="evenodd" fill="#9ACA3C" width="220.4" height="25.9"/>
<rect x="0.5" y="11.9" fill-rule="evenodd" clip-rule="evenodd" fill="#231F20" width="149.4" height="25.8"/>
<rect x="0.5" y="11.9" fill-rule="evenodd" clip-rule="evenodd" fill="none" stroke="#231F20" width="362.7" height="25.8"/>
<text transform="matrix(1 0 0 1 3.3994 29.7871)" fill="#FFFFFF" font-family="Liberation Sans, Arial, sans" font-size="14.3952">Making Connections:</text>
<text transform="matrix(1 0 0 1 196.3037 32.8174)" fill="#231F20" font-family="Liberation Sans, Arial, sans" font-size="23.0323" letter-spacing="2">Big Picture</text>
<path fill-rule="evenodd" clip-rule="evenodd" fill="#231F20" d="M193.4,37.7c-14.7,0-11.9,0-19.4,0c-9.6,0-9.6,0-19.1,0
	c-0.5-0.5,7.3-2.4,8.5-3.3c1.1-0.9,2.5-1.5,3.1-2.9c-0.1-3.6-1.1-6.2-1.9-9.1c-2.5-1.4-2.6-5.2-2.5-8.3c0.1-0.7,0.5-0.5,1-0.4
	c-1.8-7.7,2.1-12.9,8.5-13.6c8.2-0.9,13.8,4.3,12,13.6c0.2,0.2,0.7-0.4,1.2,0.2c-0.3,3.4,0.1,7.4-2.7,8.3c-0.9,3.6-4,10.7,1,12
	C191.6,36,194.2,37.3,193.4,37.7z"/>
<text transform="matrix(1 0 0 1 166.3721 19.1362)" fill="#FFFFFF" font-family="Liberation Sans, Arial, sans" font-size="9.7167">the</text>
</svg>
