<?xml version="1.0" encoding="utf-8"?>
<!-- Generator: Adobe Illustrator 14.0.0, SVG Export Plug-In  -->
<!DOCTYPE svg PUBLIC "-//W3C//DTD SVG 1.1//EN" "http://www.w3.org/Graphics/SVG/1.1/DTD/svg11.dtd" [
	<!ENTITY ns_flows "http://ns.adobe.com/Flows/1.0/">
]>
<svg version="1.1"
	 xmlns="http://www.w3.org/2000/svg" xmlns:xlink="http://www.w3.org/1999/xlink" xmlns:a="http://ns.adobe.com/AdobeSVGViewerExtensions/3.0/"
	 x="0px" y="0px" width="5.5in" height="0.75in" viewBox="0 -4 360.6 35" enable-background="new 0 -4 360.6 35"
	 xml:space="preserve">
<defs>
</defs>
<rect x="141.8" y="11.8" fill-rule="evenodd" clip-rule="evenodd" fill="#85A366" width="218.3" height="25.7"/>
<rect x="0.5" y="11.9" fill-rule="evenodd" clip-rule="evenodd" fill="#231F20" width="147.5" height="25.6"/>
<rect x="0.5" y="11.9" fill-rule="evenodd" clip-rule="evenodd" fill="none" stroke="#231F20" width="360.1" height="25.6"/>
<text transform="matrix(1 0 0 1 3.3789 31.5317)"><tspan x="0" y="0" fill="#FFFFFF" font-family="Liberation Sans, Arial, sans" font-size="14.2944">Making Connections:</tspan><tspan x="144.5" y="0" fill="#231F20" font-family="Liberation Sans, Arial, sans" font-size="17.1533">  </tspan><tspan x="154.1" y="0" fill="#231F20" font-family="Liberation Sans, Arial, sans" font-size="15.7239">Careers in Sociology</tspan></text>
<path fill-rule="evenodd" clip-rule="evenodd" fill="#376732" d="M353.8,37.5c-14.6,0-11.8,0-19.2,0c-9.5,0-9.5,0-18.9,0
	c-0.5-0.4,7.3-2.4,8.5-3.3c1.1-0.9,2.5-1.5,3.1-2.9c-0.1-3.6-1.1-6.2-1.8-9c-2.5-1.4-2.6-5.2-2.5-8.2c0.1-0.7,0.5-0.5,1-0.4
	C322,6,325.9,0.8,332.2,0.1c8.1-0.9,13.8,4.3,11.9,13.5c0.2,0.2,0.7-0.4,1.2,0.2c-0.3,3.3,0.1,7.3-2.7,8.2c-0.9,3.6-4,10.6,1,11.9
	C352,35.8,354.6,37,353.8,37.5z"/>
</svg>
