<?xml version="1.0" encoding="utf-8"?>
<!-- Generator: Adobe Illustrator 14.0.0, SVG Export Plug-In  -->
<!DOCTYPE svg PUBLIC "-//W3C//DTD SVG 1.1//EN" "http://www.w3.org/Graphics/SVG/1.1/DTD/svg11.dtd" [
	<!ENTITY ns_flows "http://ns.adobe.com/Flows/1.0/">
]>
<svg version="1.1"
	 xmlns="http://www.w3.org/2000/svg" xmlns:xlink="http://www.w3.org/1999/xlink" xmlns:a="http://ns.adobe.com/AdobeSVGViewerExtensions/3.0/"
	 x="0px" y="0px" width="5.5in" height="0.75in" viewBox="0 -4 360.6 35" enable-background="new 0 -4 360.6 35"
	 xml:space="preserve">
<defs>
</defs>
<rect x="148.7" y="11.4" fill-rule="evenodd" clip-rule="evenodd" fill="#E08585" width="213.1" height="25.8"/>
<rect x="0.5" y="11.5" fill-rule="evenodd" clip-rule="evenodd" fill="#231F20" width="148.2" height="25.7"/>
<rect x="0.5" y="11.5" fill-rule="evenodd" clip-rule="evenodd" fill="none" stroke="#231F20" width="361.4" height="25.7"/>
<text transform="matrix(1 0 0 1 3.5972 30.7104)"><tspan x="0" y="0" fill="#FFFFFF" font-family="Liberation Sans, Arial, sans" font-size="14.3372">Making Connections:</tspan><tspan x="145" y="0" fill="#231F20" font-family="Liberation Sans, Arial, sans" font-size="12.9035">  Social Policy </tspan><tspan x="235.3" y="0" fill="#CC3533" font-family="Liberation Sans, Arial, sans" font-size="12.9035">&amp;</tspan><tspan x="244.6" y="0" fill="#231F20" font-family="Liberation Sans, Arial, sans" font-size="12.9035"> Debate</tspan></text>
<path fill-rule="evenodd" clip-rule="evenodd" fill="#231F20" d="M357.4,37c-5.6,0.1-11.4-0.1-16.8,0.1c-0.7-2.5,0.6-6.6-1.5-7.5
	c-2.2-0.9-5.5,1.3-6.5-1.3c-0.3-0.9,0.2-1.5,0.1-2.3c-0.1-0.5-0.3-0.4-0.5-0.9c-0.3-0.7,0.3-1.3-0.6-1.4c0-0.9,0.3-1.5,0.4-2.3
	c-0.7-0.6-2.1-0.5-2.6-1.3c0.5-2,2.6-3.5,3.6-5.4c-1.2-4.5,1-9.2,3.9-11.9c1.6-1.5,4.4-2.9,7-2.8c7.9,0,14.7,4.2,14.7,12
	c0,2.7-0.7,5.3-1.5,7.5c-0.7,2-2.7,3.7-3.1,5.8C353,29.7,356,33.3,357.4,37z"/>
<path fill-rule="evenodd" clip-rule="evenodd" fill="#CC3533" d="M301.9,25.3c-0.4-2.1-2.3-3.8-3.1-5.8c-0.8-2.2-1.5-4.7-1.5-7.5
	c0-7.8,6.8-12,14.7-12c2.6,0,5.3,1.3,7,2.8c2.8,2.6,5.1,7.4,3.9,11.9c1.1,1.9,3.1,3.4,3.6,5.4c-0.5,0.8-1.9,0.7-2.6,1.3
	c0,0.9,0.3,1.5,0.4,2.3c-0.9,0.1-0.4,0.7-0.6,1.4c-0.2,0.5-0.5,0.4-0.5,0.9c-0.1,0.8,0.5,1.5,0.1,2.3c-1,2.6-4.2,0.4-6.5,1.3
	c-2.2,0.9-0.8,5-1.5,7.5c-5.4-0.3-11.2-0.1-16.8-0.1C299.8,33.3,302.8,29.7,301.9,25.3z"/>
</svg>
