<?xml version="1.0" encoding="utf-8"?>
<!-- Generator: Adobe Illustrator 14.0.0, SVG Export Plug-In  -->
<!DOCTYPE svg PUBLIC "-//W3C//DTD SVG 1.1//EN" "http://www.w3.org/Graphics/SVG/1.1/DTD/svg11.dtd" [
	<!ENTITY ns_flows "http://ns.adobe.com/Flows/1.0/">
]>
<svg version="1.1"
	 xmlns="http://www.w3.org/2000/svg" xmlns:xlink="http://www.w3.org/1999/xlink" xmlns:a="http://ns.adobe.com/AdobeSVGViewerExtensions/3.0/"
	 x="0px" y="0px" width="5.5in" height="0.75in" viewBox="0 -4 360.6 35" enable-background="new 0 -4 360.6 35"
	 xml:space="preserve">
<defs>
</defs>
<rect x="143.6" y="11.9" fill-rule="evenodd" clip-rule="evenodd" fill="#99D5D5" width="221.4" height="26"/>
<rect x="0.5" y="12" fill-rule="evenodd" clip-rule="evenodd" fill="#231F20" width="149.3" height="25.9"/>
<rect x="0.5" y="12" fill-rule="evenodd" clip-rule="evenodd" fill="none" stroke="#231F20" width="364.5" height="25.9"/>
<path fill-rule="evenodd" clip-rule="evenodd" fill="#01999A" d="M363.3,37.7c-14.8,0-5,0.2-12.5,0.2c-9.6,0-9.6,0-19.2,0
	c-0.5-0.5,7.4-2.4,8.6-3.4c1.1-0.9,2.5-1.5,3.1-2.9c-0.1-3.6-1.1-6.2-1.9-9.1c-2.5-1.4-2.6-5.2-2.5-8.3c0.1-0.7,0.5-0.5,1-0.4
	c-1.8-7.8,2.1-13,8.5-13.7c8.2-0.9,13.9,4.3,12,13.7c0.2,0.2,0.7-0.4,1.2,0.2c-0.3,3.4,0.1,7.4-2.7,8.3c-0.9,3.6-4,10.7,1,12
	C368.4,36.2,364.1,37.3,363.3,37.7z"/>
<path fill-rule="evenodd" clip-rule="evenodd" fill="#99D5D5" d="M352.9,4.2c0.5,0.2,0.9,0.5,1.1,1.1c-0.5,0.5-0.8-0.4-1.2-0.2
	C352.9,4.6,352.9,4.6,352.9,4.2z"/>
<path fill-rule="evenodd" clip-rule="evenodd" fill="#99D5D5" d="M343.5,17c-1.2-1.5-2.1-3.2-2.1-5.7c0-5.1,3.9-8.7,8.8-8.7
	c5.1,0,8.7,4,8.8,8.6c0.1,4.8-3.1,8.1-8.1,8.8c-0.4,0-0.9,0-1.3,0c-2.3-0.2-3.8-1.1-5.2-2.1C344.1,17.6,343.8,17.3,343.5,17z
	 M348.3,19.3c1.5,0.6,3.3-0.2,4.6,0.2c2.9-1.2,5.3-3.4,5.7-6.9c-0.2,1.2-0.5,2.2-1.3,2.7c0,0.9-0.9,2-1.8,1.3c0.1-1.8,1.1-3,0.5-5.3
	c-0.8-0.7-2.5,0.3-3-0.9c0.3-0.8-0.1-1.8,0.2-2.4c0.2-0.4,0.8-0.5,1-1c1.3-0.3,2.1,0.4,3,0.4c-0.3-0.9-1.2-0.7-1.9-0.8
	c0-0.2,0.2-0.3,0-0.4c-0.4,0-0.4,0.2-0.7,0c-0.1,0.7-1.4,0.7-1.5-0.1c0.2-0.3,0.5-0.4,0.8-0.2c1.1-1.3-0.9-1.3-1-2.5
	c0.1-0.2,0.4,0.2,0.5-0.1c-0.8-0.3-1.8-0.7-2.8-0.6c0.1,0.1,0.6,0,0.5,0.3c-0.4,0.4-0.9,0.7-1.4,1c-0.5-0.2-0.3-1.2-0.2-1.4
	c-0.2,0-0.3,0-0.5,0c-0.1,0.3,0,0.8-0.5,0.9c-0.7-0.6-2.2,0.1-1.7,0.9c0.6-0.1,0.7-0.7,1.3-0.8c0.6,0.1,0.3,0.7,0.7,1.1
	c-0.1,0.3-0.4,0.4-0.8,0.2c-0.1,0.1,0,0.4-0.2,0.4c-1.5-0.1-2.1,1.3-2.8,2.1c-0.3-0.1-0.3-0.5-0.4-0.7c-1.3-0.4-1.6,1.3-0.7,1.5
	c0.1,0.3-0.2,0.4-0.2,0.7c0.5,0.2,0.3,1,0.9,1.1c0.2-0.2,0.3-0.4,0.6-0.5c1.2,0.5,2.5,0.7,3,2c0.4,0,0.6,0.3,0.9,0.6
	c0.8-0.2,1.1,0.6,1.1,1.1c-0.1,0.6-1.2,1.2-1.2,1.7c-1.4,0.3-2.1,1.9-1.9,3.1c-0.4,0.2-1-0.1-1.1-0.4c-0.6-1.2-0.4-2.8-0.9-4.1
	c-1.1-0.2-1.1-2.1-0.7-3c-0.2-0.1-0.4-0.1-0.5-0.3c-0.3-0.4-0.2-1-0.7-1.5c-0.1-0.2-0.4-0.1-0.6-0.3c-0.3-0.5,0.1-1.2,0.1-1.6
	c-3.1,4.8-0.1,11.5,4.4,12.6c0.4-0.2,0.6-0.5,1.1-0.6C348.3,18.9,348.3,19.1,348.3,19.3z"/>
<path fill-rule="evenodd" clip-rule="evenodd" fill="#99D5D5" d="M344.5,7.9c0.4,0,0.8,0.1,0.9,0.5C345,8.3,344.5,8.3,344.5,7.9z"/>
<path fill-rule="evenodd" clip-rule="evenodd" fill="#99D5D5" d="M346.4,8.6C346,9,345,8.9,344.8,8.5C345.4,8.4,345.7,8.4,346.4,8.6
	z"/>
<path fill-rule="evenodd" clip-rule="evenodd" fill="#F5F6F6" d="M348.2,18.8c-0.4,0.1-0.7,0.4-1.1,0.6c-4.5-1.2-7.5-7.9-4.4-12.6
	c0,0.5-0.4,1.2-0.1,1.6c0.1,0.2,0.4,0.2,0.6,0.3c0.4,0.5,0.4,1.1,0.7,1.5c0.1,0.2,0.3,0.2,0.5,0.3c-0.4,0.9-0.4,2.9,0.7,3
	c0.5,1.3,0.3,2.9,0.9,4.1c0.2,0.3,0.7,0.6,1.1,0.4c-0.2-1.2,0.5-2.8,1.9-3.1c0-0.6,1.1-1.1,1.2-1.7c0.1-0.6-0.3-1.3-1.1-1.1
	c-0.3-0.3-0.6-0.6-0.9-0.6c-0.4-1.2-1.8-1.5-3-2c-0.3,0.1-0.4,0.3-0.6,0.5c-0.6,0-0.4-0.9-0.9-1.1c0-0.3,0.2-0.3,0.2-0.7
	c-1-0.2-0.6-1.8,0.7-1.5c0.1,0.2,0.1,0.7,0.4,0.7c0.7-0.8,1.3-2.2,2.8-2.1c0.2,0,0.1-0.3,0.2-0.4c0.4,0.1,0.7,0.1,0.8-0.2
	c-0.3-0.5,0-1-0.7-1.1c-0.6,0.1-0.7,0.7-1.3,0.8c-0.5-0.8,1.1-1.5,1.7-0.9c0.5-0.1,0.4-0.6,0.5-0.9c0.2,0,0.3,0,0.5,0
	c-0.1,0.2-0.2,1.2,0.2,1.4c0.5-0.3,1-0.6,1.4-1c0.1-0.3-0.4-0.2-0.5-0.3c1-0.2,2,0.3,2.8,0.6c-0.1,0.3-0.4-0.2-0.5,0.1
	c0.1,1.2,2.1,1.2,1,2.5c-0.3-0.2-0.7-0.2-0.8,0.2c0.1,0.8,1.3,0.8,1.5,0.1c0.3,0.2,0.3,0,0.7,0c0.2,0.2,0,0.2,0,0.4
	c0.7,0.1,1.6-0.1,1.9,0.8c-1,0-1.7-0.8-3-0.4c-0.2,0.5-0.8,0.6-1,1c-0.3,0.6,0,1.6-0.2,2.4c0.5,1.2,2.2,0.2,3,0.9
	c0.6,2.3-0.4,3.5-0.5,5.3c0.9,0.7,1.8-0.4,1.8-1.3c0.8-0.5,1.2-1.5,1.3-2.7c-0.4,3.5-2.7,5.7-5.7,6.9c-1.2-0.4-3.1,0.3-4.6-0.2
	C348.3,19.1,348.3,18.9,348.2,18.8z M352.8,5.1c0.5-0.1,0.7,0.7,1.2,0.2c-0.1-0.6-0.5-0.9-1.1-1.1C352.9,4.6,352.9,4.6,352.8,5.1z
	 M345.4,8.3c-0.1-0.4-0.5-0.5-0.9-0.5C344.5,8.3,345,8.3,345.4,8.3z M344.8,8.5c0.2,0.3,1.2,0.5,1.6,0.1
	C345.7,8.4,345.4,8.4,344.8,8.5z"/>
<circle fill-rule="evenodd" clip-rule="evenodd" fill="none" stroke="#34ADAD" cx="350.1" cy="11.3" r="8.8"/>
<text transform="matrix(1 0 0 1 3.4146 31.2954)"><tspan x="0" y="0" fill="#FFFFFF" font-family="Liberation Sans, Arial, sans" font-size="14.4714">Making Connections:</tspan><tspan x="146.3" y="0" fill="#231F20" font-family="Liberation Sans, Arial, sans" font-size="17.3657">  </tspan><tspan x="156" y="0" fill="#231F20" font-family="Liberation Sans, Arial, sans" font-size="14.4714">Sociology </tspan><tspan x="229.1" y="0" fill="#231F20" font-family="Liberation Sans, Arial, sans" font-size="10.13">in the</tspan><tspan x="256.2" y="0" fill="#231F20" font-family="Liberation Sans, Arial, sans" font-size="14.4714"> Real World</tspan></text>
</svg>
