<?xml version="1.0" encoding="utf-8"?>
<!-- Generator: Adobe Illustrator 14.0.0, SVG Export Plug-In  -->
<!DOCTYPE svg PUBLIC "-//W3C//DTD SVG 1.1//EN" "http://www.w3.org/Graphics/SVG/1.1/DTD/svg11.dtd" [
	<!ENTITY ns_flows "http://ns.adobe.com/Flows/1.0/">
]>
<svg version="1.1"
	 xmlns="http://www.w3.org/2000/svg" xmlns:xlink="http://www.w3.org/1999/xlink" xmlns:a="http://ns.adobe.com/AdobeSVGViewerExtensions/3.0/"
	 x="0px" y="0px" width="5.5in" height="0.75in" viewBox="0 -4 360.6 35" enable-background="new 0 -4 360.6 35"
	 xml:space="preserve">
<defs>
</defs>
<rect x="142.8" y="12.1" fill-rule="evenodd" clip-rule="evenodd" fill="#642165" width="211.3" height="25.4"/>
<rect x="0.5" y="12.3" fill-rule="evenodd" clip-rule="evenodd" fill="#231F20" width="148.9" height="25.3"/>
<rect x="0.5" y="12.3" fill-rule="evenodd" clip-rule="evenodd" fill="none" stroke="#231F20" width="354.5" height="25.3"/>
<text transform="matrix(1 0 0 1 3.4009 31.7397)"><tspan x="0" y="0" fill="#FFFFFF" font-family="Liberation Sans, Arial, sans" font-size="14.3928">Making Connections:</tspan><tspan x="145.5" y="0" fill="#231F20" font-family="Liberation Sans, Arial, sans" font-size="12.9535">  </tspan><tspan x="152.7" y="0" fill="#FFFFFF" font-family="Liberation Sans, Arial, sans" font-size="15.8321">Sociological Research</tspan></text>
<path fill-rule="evenodd" clip-rule="evenodd" fill="#231F20" d="M363,37.1c-15.1,0-3.9,0.6-17.7,0.5c-0.7-2.5,0.3-6.8-1.8-7.8
	c-2.2-0.9-5.5,1.3-6.5-1.3c-0.3-0.9,0.2-1.5,0.1-2.3c-0.1-0.5-0.3-0.4-0.5-0.9c-0.3-0.7,0.3-1.3-0.6-1.4c0-0.9,0.3-1.5,0.4-2.3
	c-0.7-0.6-2.1-0.5-2.6-1.3c0.5-2,2.6-3.6,3.6-5.4c-1.2-4.5,1.1-9.3,3.9-11.9c1.6-1.5,4.4-2.9,7-2.8c7.9,0,14.8,4.2,14.8,12
	c0,2.8-0.7,5.3-1.6,7.5c-0.8,2-2.7,3.7-3.1,5.8C357.4,29.8,361.5,33.3,363,37.1z"/>
<rect x="342.7" y="6" fill-rule="evenodd" clip-rule="evenodd" fill="#642165" width="3.8" height="17.3"/>
<rect x="346.5" y="7.6" fill-rule="evenodd" clip-rule="evenodd" fill="#A467A3" width="3.8" height="15.7"/>
<rect x="350.2" y="6" fill-rule="evenodd" clip-rule="evenodd" fill="#C299C1" width="1.9" height="17.3"/>
<rect x="353.2" y="5.1" transform="matrix(0.9926 -0.1218 0.1218 0.9926 0.9118 43.3407)" fill-rule="evenodd" clip-rule="evenodd" fill="#E0CDE1" width="3.8" height="18.2"/>
<line fill="none" stroke="#231F20" stroke-width="0.25" x1="354.2" y1="7.2" x2="356" y2="21.2"/>
<line fill="none" stroke="#231F20" stroke-width="0.25" x1="344.6" y1="7.6" x2="344.6" y2="21.7"/>
<line fill="none" stroke="#231F20" stroke-width="0.25" x1="348.4" y1="16" x2="348.4" y2="21.7"/>
<line fill="none" stroke="#231F20" stroke-width="0.25" x1="351.2" y1="8.4" x2="351.2" y2="22.6"/>
<line fill-rule="evenodd" clip-rule="evenodd" fill="none" stroke="#231F20" x1="340.2" y1="37.6" x2="363" y2="37.6"/>
</svg>
